<svg version="1.1" id="Layer_1" xmlns="http://www.w3.org/2000/svg" xmlns:xlink="http://www.w3.org/1999/xlink" x="0px" y="0px"
	 width="100%" viewBox="0 0 1024 1024" enable-background="new 0 0 1024 1024" xml:space="preserve">
<path fill="none" opacity="1.000000" stroke="#000000" stroke-linecap="round" stroke-linejoin="round" stroke-width="7.000000"
	d="
M629.500000,328.500000 
	C631.738098,338.713531 631.248047,349.206085 632.598633,359.487030 
	C634.796875,376.220886 639.807861,385.162415 659.464539,390.627533 
	C674.668335,394.854584 689.816406,395.962006 705.519104,394.746521 
	C714.815369,394.026978 724.362305,393.922272 733.557678,397.865570 
	C746.221924,403.296478 751.551392,412.507721 752.484680,424.501190 
	C752.837646,429.037140 752.476013,433.533142 749.943115,437.463348 
	C748.972778,438.969086 749.066956,440.435516 748.995178,441.999786 
	C748.457947,453.703949 753.080505,463.849335 759.682800,472.866150 
	C763.709778,478.365814 764.901489,484.305328 765.957764,490.507202 
	C767.457458,499.312225 769.163635,508.129944 769.820190,517.013306 
	C770.237549,522.660461 771.474365,528.257263 771.077820,534.005371 
	C770.809204,537.899536 767.973694,540.522827 766.917664,543.961487 
	C764.424316,544.234131 761.918030,543.947937 759.500000,543.000000 
"/>
<path fill="none" opacity="1.000000" stroke="#000000" stroke-linecap="round" stroke-linejoin="round" stroke-width="8.000000"
	d="
M387.000000,239.000000 
	C383.136261,249.838745 383.250885,261.273804 382.023224,272.502533 
	C381.271606,279.376862 380.376526,286.216125 379.030060,293.005951 
	C377.656219,299.934265 374.235229,305.140656 366.986755,306.425293 
	C356.474792,308.288269 347.204620,312.806366 337.933472,317.878387 
	C324.340515,325.314697 309.640503,325.177521 294.474396,323.777161 
	C281.765808,322.603760 268.742004,320.657562 256.014893,324.055817 
	C243.446823,327.411621 233.660248,335.100891 225.522522,345.018463 
	C224.110840,346.738892 222.776276,348.096680 220.593460,349.187103 
	C216.269958,351.346802 215.416382,356.478851 214.250900,360.571442 
	C213.208313,364.232513 213.466171,368.566498 214.539078,372.489319 
	C215.496170,375.988678 218.015640,378.072906 221.500000,379.000000 
"/>
<path fill="none" opacity="1.000000" stroke="#000000" stroke-linecap="round" stroke-linejoin="round" stroke-width="7.000000"
	d="
M692.500000,296.000000 
	C685.403015,296.054565 679.080505,292.773956 672.565552,290.785309 
	C657.115173,286.069244 641.850159,280.620392 627.502075,272.996033 
	C614.992004,266.348328 602.486938,259.691040 590.003357,252.993759 
	C574.694397,244.780746 559.034790,237.260361 543.576111,229.351212 
	C536.418152,225.688980 529.774597,225.339706 522.491150,227.975540 
	C509.039886,232.843475 495.693451,237.971161 482.487213,243.469315 
	C481.377167,243.931442 481.456573,244.644958 481.500000,245.500000 
"/>
<path fill="none" opacity="1.000000" stroke="#000000" stroke-linecap="round" stroke-linejoin="round" stroke-width="7.000000"
	d="
M607.000000,473.000000 
	C602.333313,473.000000 597.666504,472.972473 593.000061,473.004669 
	C570.333252,473.160980 547.664734,473.596954 525.000549,473.427917 
	C500.998138,473.248932 476.988647,472.801392 453.003876,471.897369 
	C436.150482,471.262207 419.333344,469.666687 402.500000,468.500031 
"/>
<path fill="none" opacity="1.000000" stroke="#000000" stroke-linecap="round" stroke-linejoin="round" stroke-width="7.000000"
	d="
M602.000000,545.000000 
	C580.997131,546.800171 560.205933,551.015686 538.999939,550.502319 
	C522.018494,550.091248 505.265198,547.774597 489.047150,542.844910 
	C480.137024,540.136475 471.138275,538.715576 461.993805,538.090454 
	C452.712250,537.455811 444.130035,534.491821 435.500916,531.497314 
	C427.884552,528.854248 420.120148,527.051758 412.000366,526.966064 
	C409.742157,526.942200 407.596527,527.210754 405.500000,528.000000 
"/>
<path fill="none" opacity="1.000000" stroke="#000000" stroke-linecap="round" stroke-linejoin="round" stroke-width="9.000000"
	d="
M208.500000,250.500000 
	C205.666656,264.166656 202.591400,277.789459 200.101776,291.518463 
	C198.851578,298.412628 198.743240,305.508392 197.977966,312.497589 
	C197.246780,319.175415 196.279709,325.827179 195.512924,332.501495 
	C194.444519,341.801208 194.709885,351.175049 194.176804,360.510101 
	C193.217545,377.307709 193.079666,394.166840 193.091949,410.999939 
	C193.099731,421.666962 194.112091,432.330139 194.416443,443.002380 
	C194.487198,445.482880 195.762299,446.620209 197.523880,447.449249 
	C199.418106,448.340668 201.500000,448.833344 203.500000,449.500000 
"/>
<path fill="none" opacity="1.000000" stroke="#000000" stroke-linecap="round" stroke-linejoin="round" stroke-width="12.000000"
	d="
M781.000000,260.500000 
	C779.047058,281.673309 783.316833,302.500916 784.493652,323.500366 
	C784.867188,330.164764 785.058716,336.840820 785.519104,343.498688 
	C787.326416,369.636047 788.313110,395.799011 787.962585,421.999512 
	C787.884460,427.836273 787.333313,433.666656 787.000000,439.500000 
"/>
<path fill="none" opacity="1.000000" stroke="#000000" stroke-linecap="round" stroke-linejoin="round" stroke-width="8.000000"
	d="
M346.500000,816.000000 
	C349.333557,819.165955 352.758698,819.932068 357.008698,819.617676 
	C363.704041,819.122375 370.461945,819.923462 377.011566,817.531677 
	C401.386627,808.630127 410.776001,782.646118 400.388763,762.056152 
	C393.217926,747.841858 381.322052,740.088135 365.000000,740.001953 
	C362.333405,739.987854 359.660034,740.119690 357.001526,739.972412 
	C352.860565,739.742859 349.314209,740.866455 346.500000,744.000000 
"/>
<path fill="none" opacity="1.000000" stroke="#000000" stroke-linecap="round" stroke-linejoin="round" stroke-width="7.000000"
	d="
M294.500000,408.500000 
	C289.537109,422.637421 281.754211,435.355743 273.834106,447.895233 
	C269.847351,454.207306 269.311279,460.331665 271.041077,466.989319 
	C275.805786,485.328003 280.703583,503.622192 288.439606,521.026855 
	C291.308197,527.480652 296.257599,532.732788 298.553528,539.481812 
	C298.931793,540.593811 300.299347,540.738037 301.477173,541.078857 
	C304.119843,541.843506 306.738525,542.369202 309.497314,542.542908 
	C315.172943,542.900269 320.833344,543.500000 326.500000,544.000000 
"/>
<path fill="none" opacity="1.000000" stroke="#000000" stroke-linecap="round" stroke-linejoin="round" stroke-width="7.000000"
	d="
M547.000000,487.000000 
	C506.166656,487.000000 465.333344,486.990509 424.500031,487.034241 
	C422.843445,487.036041 421.077454,486.441315 419.500000,487.500000 
"/>
<path fill="none" opacity="1.000000" stroke="#000000" stroke-linecap="round" stroke-linejoin="round" stroke-width="7.000000"
	d="
M585.500000,277.750000 
	C577.737793,282.867279 569.087769,285.458374 560.005554,287.031891 
	C542.014160,290.148956 525.506531,297.815674 508.418427,303.765686 
	C498.968811,307.056030 488.490082,306.252045 478.501801,307.514160 
	C471.159332,308.441925 463.833344,309.500000 456.500000,310.500000 
"/>
<path fill="none" opacity="1.000000" stroke="#000000" stroke-linecap="round" stroke-linejoin="round" stroke-width="7.000000"
	d="
M429.500000,274.500000 
	C428.587067,284.580078 431.544769,294.201935 433.009399,303.998596 
	C434.505371,314.004944 434.602814,324.029297 432.961121,333.993591 
	C429.998810,351.973114 423.998688,368.880219 414.609131,384.565338 
	C414.224213,385.208252 413.883484,386.396820 413.425964,386.937317 
	C409.587860,391.471741 407.013184,395.935394 408.229156,402.549805 
	C409.007568,406.784119 407.116425,411.493225 406.509308,416.001251 
	C404.607208,430.124603 402.779816,444.240143 401.899933,458.493835 
	C400.871124,475.159515 398.411194,491.723877 398.922852,508.502350 
	C399.126404,515.177063 400.495331,521.242249 403.891327,527.063416 
	C405.825806,530.379395 406.625427,534.349060 408.014130,537.994629 
	C408.984406,540.541809 410.266876,542.888733 413.000000,544.000000 
"/>
<path fill="none" opacity="1.000000" stroke="#000000" stroke-linecap="round" stroke-linejoin="round" stroke-width="11.000000"
	d="
M510.750000,594.000000 
	C504.383514,600.920105 507.592438,609.355225 507.738861,616.995422 
	C507.952972,628.165344 507.922241,639.336304 507.891083,650.499695 
	C507.876892,655.586731 504.395416,658.830261 498.998688,658.908386 
	C486.668793,659.087036 474.312164,660.695984 461.996918,658.517517 
	C456.512207,657.547363 452.301392,655.775757 450.298737,649.564880 
	C448.321808,643.433777 445.753784,637.326599 442.776398,631.616577 
	C440.739319,627.709839 440.084991,624.427795 441.500000,620.500000 
"/>
<path fill="none" opacity="1.000000" stroke="#000000" stroke-linecap="round" stroke-linejoin="round" stroke-width="14.000000"
	d="
M293.500000,592.500000 
	C287.256622,600.483276 289.536865,609.638550 290.134674,618.490906 
	C290.221649,619.778381 290.425476,621.173218 290.467834,622.501038 
	C290.701752,629.832214 290.764771,637.169067 291.016907,644.499390 
	C291.351105,654.214661 295.912720,658.963989 305.501099,659.479675 
	C317.854645,660.144104 330.169037,658.870605 342.496185,658.400085 
	C345.107971,658.300415 347.812317,657.489624 350.048340,655.555908 
	C351.894348,653.959473 353.984924,652.519592 356.319580,652.037292 
	C357.716736,642.918396 363.713745,637.080505 370.587708,632.121582 
	C372.751465,630.560608 376.029358,630.505188 378.482239,632.521606 
	C384.208801,637.229126 388.289490,643.164795 389.404785,650.514465 
	C390.678131,658.905640 385.368011,661.427002 379.532745,660.326355 
	C371.655884,658.840698 363.646057,657.093750 357.000000,652.000000 
"/>
<path fill="none" opacity="1.000000" stroke="#000000" stroke-linecap="round" stroke-linejoin="round" stroke-width="7.000000"
	d="
M560.500000,453.500000 
	C561.166626,447.166656 561.842712,440.834290 562.488403,434.498810 
	C562.572510,433.674042 562.843140,432.584015 562.446899,432.038605 
	C558.517090,426.629822 558.168396,419.841309 555.928406,413.840088 
	C552.630188,405.003754 548.408936,396.111298 548.871399,385.994110 
	C549.418823,374.019135 549.100647,361.998657 548.942017,350.000763 
	C548.890869,346.136963 548.008240,342.473572 549.294067,338.434448 
	C550.537598,334.527954 548.195862,332.682770 544.001038,332.478180 
	C524.505798,331.527374 504.993805,332.428131 485.502716,331.899628 
	C477.166321,331.673584 468.831665,331.700531 460.501251,331.457520 
	C456.042419,331.327454 452.803864,332.223724 454.214020,338.451538 
	C455.009094,341.962891 454.481049,345.162292 454.488708,348.500031 
	C454.517120,360.833313 454.337646,373.169647 454.563782,385.498840 
	C454.689972,392.378387 453.817108,399.166199 453.532196,406.001343 
	C453.455170,407.849792 452.855560,409.407410 452.031738,411.016235 
	C450.273376,414.450165 449.006805,417.970428 449.932159,422.015533 
	C450.344910,423.819611 449.497009,425.689667 449.141846,427.527405 
	C448.640747,430.120056 448.279114,433.015350 450.003204,435.497772 
	C453.467560,440.485992 454.271759,446.110901 454.000000,452.000000 
"/>
<path fill="none" opacity="1.000000" stroke="#000000" stroke-linecap="round" stroke-linejoin="round" stroke-width="14.000000"
	d="
M697.000000,633.000000 
	C695.334595,635.666687 695.936462,638.251770 696.946106,641.019653 
	C698.361084,644.898682 698.225037,648.936584 697.536255,653.006165 
	C696.892334,656.810486 694.553284,658.713867 690.997253,658.960144 
	C676.158081,659.987976 661.332703,659.309570 646.495789,658.585815 
	C640.523010,658.294373 634.499695,658.158691 628.494812,658.961304 
	C618.240540,660.331726 608.263489,660.612122 602.848389,649.270813 
	C604.365295,642.782532 603.132202,635.875366 601.644348,629.584106 
	C600.160339,623.309265 601.532471,618.324158 603.758179,613.003418 
	C604.116882,612.145874 604.583313,611.333313 605.000000,610.500000 
"/>
<path fill="none" opacity="1.000000" stroke="#000000" stroke-linecap="round" stroke-linejoin="round" stroke-width="20.000000"
	d="
M851.500000,821.500000 
	C855.626892,820.508484 859.340820,818.658447 863.053650,816.596558 
	C866.473206,814.697571 867.792480,812.474304 867.604919,808.495056 
	C867.244446,800.845337 869.176697,792.661499 867.058899,785.632874 
	C864.626587,777.560120 858.873474,770.476379 854.479919,763.011841 
	C852.769653,760.106079 849.926697,757.556763 849.163269,754.459778 
	C846.443176,743.424133 836.991699,741.681641 828.474670,738.569336 
	C827.498840,738.212769 826.361084,738.250000 825.500000,737.500000 
"/>
<path fill="none" opacity="1.000000" stroke="#000000" stroke-linecap="round" stroke-linejoin="round" stroke-width="6.000000"
	d="
M662.000000,438.500000 
	C661.666626,441.833344 661.393372,445.173950 660.988892,448.498657 
	C659.690674,459.169617 657.164734,469.595581 656.720276,480.488586 
	C656.183105,493.657196 655.413879,506.812775 655.520752,519.999817 
	C655.555847,524.334229 655.859070,528.665894 655.991333,533.000244 
	C656.085632,536.091858 655.150452,538.877563 653.523621,541.514587 
	C651.583984,544.658569 649.411194,546.920898 645.508911,544.485718 
	C643.146301,543.011414 641.644104,546.031433 639.500000,545.500000 
"/>
<path fill="none" opacity="1.000000" stroke="#000000" stroke-linecap="round" stroke-linejoin="round" stroke-width="6.000000"
	d="
M638.000000,453.500000 
	C639.951599,456.004425 640.252502,459.018951 640.472046,462.002045 
	C640.753601,465.826935 640.922424,469.665558 640.970276,473.500366 
	C641.005310,476.302643 641.109558,478.782898 639.249146,481.661041 
	C636.623169,485.723816 637.359497,491.127472 637.009338,496.000671 
	C636.132996,508.195862 635.935181,520.430237 633.628723,532.524536 
	C632.707520,537.355042 628.323486,539.686829 626.942444,543.981506 
	C626.895569,544.127197 625.938354,544.151001 625.509766,543.976013 
	C622.174500,542.614136 619.413696,544.482300 616.500000,545.500000 
"/>
<path fill="none" opacity="1.000000" stroke="#000000" stroke-linecap="round" stroke-linejoin="round" stroke-width="19.000000"
	d="
M802.750000,818.000000 
	C800.751831,810.629395 796.869995,804.671265 791.702209,798.821411 
	C779.082214,784.535767 767.738586,769.131226 755.409790,754.576416 
	C748.108643,745.957092 739.497620,738.778442 727.500000,737.500000 
"/>
<path fill="none" opacity="1.000000" stroke="#000000" stroke-linecap="round" stroke-linejoin="round" stroke-width="7.000000"
	d="
M602.500000,356.000000 
	C605.329407,369.561157 603.218872,383.356812 604.448547,397.004639 
	C605.381348,407.357086 605.432617,417.851532 610.031006,427.485199 
	C612.896240,433.487854 616.124939,439.324432 621.018921,443.980103 
	C623.827881,446.652313 624.910950,449.420563 624.159546,453.529175 
	C623.254272,458.478912 624.980225,463.502655 625.516602,468.498230 
	C627.463440,486.628448 629.544006,504.756165 626.972900,522.996155 
	C626.314392,527.668152 624.930054,532.189148 622.967285,536.485046 
	C621.996216,538.610596 621.482605,540.702454 622.000000,543.000000 
"/>
<path fill="none" opacity="1.000000" stroke="#000000" stroke-linecap="round" stroke-linejoin="round" stroke-width="7.000000"
	d="
M339.500000,391.500000 
	C339.607605,396.039276 342.065460,400.085327 342.430084,404.505768 
	C343.158813,413.340942 347.367554,421.271881 348.570038,429.990326 
	C349.748535,438.534698 351.850128,446.956543 352.911865,455.510925 
	C354.256226,466.342529 356.564819,477.070343 356.953796,488.001648 
	C357.333099,498.660736 357.362579,509.333038 357.477570,520.000244 
	C357.503448,522.398621 357.876221,524.271606 359.910889,526.099182 
	C363.001526,528.875305 363.358490,533.221130 364.443817,537.016052 
	C366.982880,545.894104 366.940033,544.192383 374.982513,543.709045 
	C377.736908,543.543457 380.049927,543.584290 382.500000,544.500000 
"/>
<path fill="none" opacity="1.000000" stroke="#000000" stroke-linecap="round" stroke-linejoin="round" stroke-width="7.000000"
	d="
M456.000000,391.000031 
	C486.666656,391.166687 517.333313,391.333374 548.000000,391.500031 
"/>
<path fill="none" opacity="1.000000" stroke="#000000" stroke-linecap="round" stroke-linejoin="round" stroke-width="7.000000"
	d="
M547.000000,344.000000 
	C539.833313,343.666656 532.668213,343.090454 525.499695,343.045898 
	C504.667175,342.916443 483.833344,343.000000 463.000000,343.000000 
	C460.666656,343.000000 458.333344,343.000000 456.000000,343.000000 
"/>
<path fill="none" opacity="1.000000" stroke="#000000" stroke-linecap="round" stroke-linejoin="round" stroke-width="6.000000"
	d="
M698.000000,454.000000 
	C698.701721,458.793518 701.901855,462.260010 704.538452,465.972687 
	C708.049500,470.916565 711.852600,475.652222 715.493896,480.504547 
	C718.386108,484.358734 719.755371,488.717682 718.970703,493.495178 
	C716.488403,508.609802 711.928650,523.100098 705.487427,536.994202 
	C704.669556,538.758362 703.859009,540.491821 704.000000,542.500000 
"/>
<path fill="none" opacity="1.000000" stroke="#000000" stroke-linecap="round" stroke-linejoin="round" stroke-width="7.000000"
	d="
M382.500000,412.500000 
	C383.928619,415.169464 383.976257,418.050903 384.035278,420.999298 
	C384.285553,433.500946 383.874359,446.084381 385.194275,458.479309 
	C386.969940,475.153687 386.982635,491.808258 386.975861,508.500000 
	C386.974854,511.021271 386.882019,513.477417 386.194153,516.051880 
	C385.454926,518.818604 385.101257,522.352722 388.976288,524.054016 
	C390.010681,524.508118 390.187561,525.846863 390.568207,526.977051 
	C391.712311,530.374084 393.490479,533.577881 394.434235,537.018066 
	C396.554291,544.746094 401.088409,546.026978 409.500000,542.000000 
"/>
<path fill="none" opacity="1.000000" stroke="#000000" stroke-linecap="round" stroke-linejoin="round" stroke-width="7.000000"
	d="
M223.500000,348.500000 
	C225.726044,352.243805 224.614182,356.467682 223.750900,359.938049 
	C222.168228,366.300385 223.591125,372.685120 222.346115,379.067505 
	C221.655746,382.606598 224.311325,386.764130 224.633804,390.989777 
	C225.995621,408.834869 222.017227,424.889404 209.971756,438.474945 
	C205.853683,443.119537 204.138474,448.146118 204.332047,454.505127 
	C204.616837,463.860321 203.025391,473.188293 202.235962,482.519958 
	C201.191299,494.868805 197.615906,506.725220 196.486160,518.645752 
	C201.379807,523.825623 201.967377,530.245483 203.000000,536.500000 
"/>
<path fill="none" opacity="1.000000" stroke="#000000" stroke-linecap="round" stroke-linejoin="round" stroke-width="7.000000"
	d="
M256.500000,426.500000 
	C253.528091,426.389526 251.547897,428.284302 249.505173,430.006134 
	C243.990051,434.654846 238.440811,439.265808 233.017548,444.020020 
	C228.143738,448.292542 224.691788,453.817383 221.147034,459.098694 
	C217.940613,463.875854 217.098175,469.912476 216.127457,475.522064 
	C213.638504,489.905365 210.927963,504.286713 210.945755,519.000061 
	C210.953369,525.288147 213.530365,530.961670 214.500000,537.000000 
"/>
<path fill="none" opacity="1.000000" stroke="#000000" stroke-linecap="round" stroke-linejoin="round" stroke-width="8.000000"
	d="
M308.500000,83.000000 
	C298.552704,97.657440 295.752411,113.481003 301.028473,130.491165 
	C304.507080,141.706223 311.137512,150.883453 320.001709,158.498001 
	C320.989014,159.346115 322.073364,160.958115 322.988251,160.873291 
	C329.593353,160.260895 332.397919,165.772202 336.440826,169.072510 
	C341.734131,173.393555 347.589355,176.741699 353.543274,179.918884 
	C356.213287,181.343643 359.286438,182.153961 362.505280,181.527069 
	C363.919312,181.251663 365.138550,181.423141 366.555939,182.420517 
	C373.714264,187.457642 380.586853,193.056320 389.250000,195.500000 
	C392.985596,201.708130 399.083374,206.274384 401.896118,213.043167 
	C403.360535,216.567230 405.783905,217.399521 409.000214,217.492447 
	C412.417358,217.591171 415.849579,217.719437 419.000000,216.000000 
"/>
<path fill="none" opacity="1.000000" stroke="#000000" stroke-linecap="round" stroke-linejoin="round" stroke-width="19.000000"
	d="
M288.500000,799.500000 
	C287.094147,806.010620 283.711426,811.522888 279.428864,816.437988 
	C277.774994,818.336060 274.971222,818.449524 272.499756,818.473999 
	C265.167114,818.546570 257.830872,818.617920 250.500732,818.464844 
	C243.970444,818.328552 240.000000,814.033752 240.000000,807.500000 
	C240.000000,788.833313 239.840729,770.164368 240.115311,751.501709 
	C240.181503,747.003174 238.648407,744.067261 234.987320,742.022705 
	C231.407532,740.023621 227.765091,738.092041 223.500000,738.000000 
"/>
<path fill="none" opacity="1.000000" stroke="#000000" stroke-linecap="round" stroke-linejoin="round" stroke-width="20.000000"
	d="
M344.500000,745.500000 
	C344.500000,767.333313 344.450195,789.166931 344.564728,810.999634 
	C344.578644,813.647766 343.854706,815.235535 341.531647,816.555664 
	C337.710754,818.726990 333.880035,820.745422 329.500000,821.500000 
"/>
<path fill="none" opacity="1.000000" stroke="#000000" stroke-linecap="round" stroke-linejoin="round" stroke-width="7.000000"
	d="
M600.500000,503.000000 
	C599.132629,501.170074 597.173950,502.043457 595.499878,502.038910 
	C573.833374,501.980164 552.166626,502.023132 530.500061,501.977570 
	C526.833008,501.969849 523.166687,501.666656 519.500000,501.500000 
"/>
<path fill="none" opacity="1.000000" stroke="#000000" stroke-linecap="round" stroke-linejoin="round" stroke-width="6.000000"
	d="
M364.500000,284.000000 
	C357.851715,282.296539 352.595612,277.820312 346.548706,274.899139 
	C341.045563,272.240692 335.955475,268.679047 329.991638,267.030243 
	C323.477203,265.229187 317.760345,268.209412 312.009857,270.524475 
	C303.970825,273.760864 295.993195,277.150635 288.013611,280.532074 
	C287.410095,280.787811 287.000000,281.500000 286.500000,282.000000 
"/>
<path fill="none" opacity="1.000000" stroke="#000000" stroke-linecap="round" stroke-linejoin="round" stroke-width="6.000000"
	d="
M732.000000,471.000000 
	C731.149292,473.657867 731.432251,476.035248 732.921753,478.546417 
	C734.442993,481.111084 734.363159,484.047974 733.528076,487.007904 
	C728.625122,504.384827 722.977905,521.458435 714.621704,537.563171 
	C713.457764,539.806458 712.320984,541.879761 710.470520,543.465576 
	C708.455139,545.192627 706.508484,543.080078 704.500549,542.987854 
	C703.200073,542.928040 701.991272,543.052673 701.000000,544.000000 
"/>
<path fill="none" opacity="1.000000" stroke="#000000" stroke-linecap="round" stroke-linejoin="round" stroke-width="7.000000"
	d="
M709.000000,439.000000 
	C710.725220,447.783783 716.656128,453.890778 722.527466,459.973450 
	C726.896973,464.500092 730.638306,469.226624 736.793274,472.400818 
	C745.203186,476.737915 751.176453,484.861481 754.395752,494.036591 
	C758.856140,506.748535 760.787292,520.011108 761.002991,533.499939 
	C761.058716,536.983337 760.043335,540.182068 758.500000,543.250000 
"/>
<path fill="none" opacity="1.000000" stroke="#000000" stroke-linecap="round" stroke-linejoin="round" stroke-width="7.000000"
	d="
M377.500000,393.500000 
	C377.550140,399.189209 375.413361,404.627563 376.250946,410.535309 
	C376.690308,413.634125 374.307587,416.937836 373.845398,420.479828 
	C372.521179,430.628693 371.585602,440.776184 370.845428,450.988800 
	C369.841797,464.836029 369.896790,478.669220 370.092896,492.498688 
	C370.302490,507.279968 370.912140,522.096924 376.970764,536.012756 
	C377.856537,538.047302 378.596924,540.195557 378.500000,542.500000 
"/>
<path fill="none" opacity="1.000000" stroke="#000000" stroke-linecap="round" stroke-linejoin="round" stroke-width="6.000000"
	d="
M279.500000,373.500000 
	C278.166656,378.500000 276.679169,383.464874 275.530334,388.506897 
	C272.652588,401.136444 265.550629,411.671265 259.040405,422.524231 
	C257.800903,424.590515 256.760406,426.616241 257.338715,429.531982 
	C258.212891,433.939301 255.644318,438.046082 253.329300,441.381531 
	C249.391006,447.055817 249.572479,452.216248 252.471497,458.014252 
	C261.575470,476.222076 267.144348,495.573303 271.140533,515.471802 
	C271.771576,518.614075 273.133301,521.401855 276.686584,523.938965 
	C281.463226,527.349548 283.316742,534.153870 284.000000,540.500000 
"/>
<path fill="none" opacity="1.000000" stroke="#000000" stroke-linecap="round" stroke-linejoin="round" stroke-width="7.000000"
	d="
M282.500000,879.000000 
	C280.295502,878.912598 278.313904,879.326965 275.892456,878.239441 
	C272.308411,876.629883 267.716492,876.662109 264.099243,878.229065 
	C261.670868,879.281006 259.005493,881.765747 259.486267,885.501770 
	C260.024292,889.682434 263.271484,891.182861 266.524323,892.436890 
	C269.069672,893.418213 271.862366,893.736145 274.493469,894.521851 
	C278.856415,895.824829 281.348053,899.164673 281.000000,903.000000 
	C280.668396,906.654480 277.369537,909.320068 273.012573,910.072754 
	C270.443756,910.516663 267.967590,910.199951 265.509094,909.920044 
	C263.031281,909.638000 260.195496,909.190186 260.500000,905.500000 
"/>
<path fill="none" opacity="1.000000" stroke="#000000" stroke-linecap="round" stroke-linejoin="round" stroke-width="14.000000"
	d="
M243.000000,661.500000 
	C243.166672,662.666687 243.126450,663.912354 243.536560,664.986023 
	C245.130386,669.158752 243.816025,672.346191 240.502975,675.003723 
	C229.377930,683.927551 216.611191,686.413818 203.029953,683.366455 
	C192.056122,680.904114 187.312149,672.715393 188.413132,661.491455 
	C188.948044,656.038330 190.545105,651.029541 192.381943,645.957275 
	C193.050369,644.111389 193.616989,643.273743 195.500000,643.500000 
"/>
<path fill="none" opacity="1.000000" stroke="#000000" stroke-linecap="round" stroke-linejoin="round" stroke-width="18.000000"
	d="
M562.500000,815.500000 
	C562.500000,809.833313 562.462585,804.166199 562.533020,798.500427 
	C562.546265,797.433105 562.062561,796.763550 561.510498,795.992493 
	C553.977966,785.473389 549.235901,773.472290 543.516235,761.991882 
	C541.725830,758.398193 540.104797,754.508850 536.906311,752.125793 
	C534.120544,750.050354 534.813904,746.432007 531.670227,744.254272 
	C526.908203,740.955566 522.128967,738.485535 516.500000,737.500000 
"/>
<path fill="none" opacity="1.000000" stroke="#000000" stroke-linecap="round" stroke-linejoin="round" stroke-width="7.000000"
	d="
M522.500000,516.500000 
	C502.506958,515.498596 482.499390,516.232788 462.500214,515.982422 
	C459.165314,515.940613 455.833344,515.666626 452.500000,515.500000 
"/>
<path fill="none" opacity="1.000000" stroke="#000000" stroke-linecap="round" stroke-linejoin="round" stroke-width="7.000000"
	d="
M788.500000,462.000000 
	C790.754089,464.573334 793.584412,465.505035 796.999512,465.543732 
	C810.744690,465.699585 824.364197,467.411560 838.010132,468.907501 
	C844.450989,469.613556 851.000000,469.333313 857.500000,469.500000 
"/>
<path fill="none" opacity="1.000000" stroke="#000000" stroke-linecap="round" stroke-linejoin="round" stroke-width="7.000000"
	d="
M159.500000,536.000000 
	C169.500000,536.500000 179.521469,537.638428 189.493378,537.303162 
	C197.858917,537.021973 206.481094,537.069336 214.423996,538.090881 
	C225.474243,539.512146 236.430984,540.151001 247.493347,540.648132 
	C250.315308,540.774902 253.170227,540.914673 256.000610,540.964294 
	C267.006012,541.156921 278.021912,540.697876 289.006653,541.941345 
	C292.039398,542.284729 295.239197,542.435120 298.000000,540.500000 
"/>
<path fill="none" opacity="1.000000" stroke="#000000" stroke-linecap="round" stroke-linejoin="round" stroke-width="8.000000"
	d="
M723.500000,894.000000 
	C723.500000,884.398315 716.415100,877.538086 707.000793,877.431519 
	C699.112000,877.342285 690.615356,885.143188 691.031982,893.998474 
	C691.569397,905.422852 701.024780,911.168396 709.014404,910.108337 
	C717.731812,908.951782 723.500000,903.206299 723.500000,894.500000 
"/>
<path fill="none" opacity="1.000000" stroke="#000000" stroke-linecap="round" stroke-linejoin="round" stroke-width="8.000000"
	d="
M470.500000,94.500000 
	C472.313110,99.426773 475.797119,103.425446 477.622681,108.455475 
	C483.911835,125.784386 479.669800,140.772598 468.474915,154.479523 
	C467.666504,155.469330 466.625061,156.595703 465.479492,156.929657 
	C458.566345,158.944962 456.351593,164.972672 453.493805,170.496796 
	C451.609772,174.138657 449.342682,177.528061 446.494141,180.494385 
	C444.176941,182.907455 442.506592,185.640747 442.000000,189.000000 
"/>
<path fill="none" opacity="1.000000" stroke="#000000" stroke-linecap="round" stroke-linejoin="round" stroke-width="10.000000"
	d="
M534.000000,751.000000 
	C529.193604,754.229004 527.442871,758.644470 527.383667,764.498840 
	C527.223328,780.335571 526.493225,796.166504 526.005859,812.000183 
	C525.909729,815.126038 526.830872,817.766663 530.008057,818.978882 
	C532.467896,819.917480 535.000000,820.666626 537.500000,821.500000 
"/>
<path fill="none" opacity="1.000000" stroke="#000000" stroke-linecap="round" stroke-linejoin="round" stroke-width="6.000000"
	d="
M868.000000,365.000000 
	C844.438904,360.417847 822.397095,351.941803 802.000000,339.250000 
"/>
<path fill="none" opacity="1.000000" stroke="#000000" stroke-linecap="round" stroke-linejoin="round" stroke-width="10.000000"
	d="
M746.000000,750.500000 
	C742.557800,753.573303 741.400085,757.400452 741.438232,762.000488 
	C741.588806,780.165955 741.500000,798.333313 741.500000,816.500000 
"/>
<path fill="none" opacity="1.000000" stroke="#000000" stroke-linecap="round" stroke-linejoin="round" stroke-width="7.000000"
	d="
M642.000000,479.500000 
	C645.883850,482.506378 644.971069,487.022003 645.452148,491.005768 
	C647.279846,506.141174 647.885742,521.300293 646.082336,536.509766 
	C645.793640,538.944641 644.003540,540.953125 644.500000,543.500000 
"/>
<path fill="none" opacity="1.000000" stroke="#000000" stroke-linecap="round" stroke-linejoin="round" stroke-width="8.000000"
	d="
M197.000000,244.000000 
	C190.215668,237.945709 182.024536,234.926941 173.695068,231.522705 
	C167.808807,229.116959 161.414230,229.972397 155.901413,226.664291 
	C153.675369,225.328491 150.594543,227.263245 148.015442,228.050583 
	C143.128723,229.542343 138.333328,231.333344 133.500000,233.000000 
"/>
<path fill="none" opacity="1.000000" stroke="#000000" stroke-linecap="round" stroke-linejoin="round" stroke-width="11.000000"
	d="
M536.500000,593.500000 
	C533.511169,597.921875 532.424988,602.588562 533.377502,608.021484 
	C534.147949,612.415588 533.906799,616.998718 533.983643,621.500305 
	C534.117432,629.334534 533.986755,637.164734 534.413635,645.004700 
	C534.774109,651.626587 535.386414,658.444092 531.500000,664.500000 
"/>
<path fill="none" opacity="1.000000" stroke="#000000" stroke-linecap="round" stroke-linejoin="round" stroke-width="7.000000"
	d="
M892.500000,442.500000 
	C874.666687,442.333313 856.833374,442.086334 838.999939,442.071167 
	C835.639587,442.068329 833.194397,440.393738 830.500000,439.000000 
"/>
<path fill="none" opacity="1.000000" stroke="#000000" stroke-linecap="round" stroke-linejoin="round" stroke-width="18.000000"
	d="
M601.000000,745.000000 
	C599.743042,748.500000 599.056030,751.968872 600.957520,755.522705 
	C601.410583,756.369446 601.450256,757.496216 601.482483,758.500549 
	C602.007202,774.833069 602.822510,791.166809 602.815308,807.499939 
	C602.812988,812.816345 604.543701,815.875000 608.993469,818.013611 
	C612.055664,819.485413 615.068481,821.052185 618.500000,821.500000 
"/>
<path fill="none" opacity="1.000000" stroke="#000000" stroke-linecap="round" stroke-linejoin="round" stroke-width="7.000000"
	d="
M479.500000,501.000000 
	C473.000000,500.031494 466.504242,500.845886 459.999115,500.938660 
	C446.001984,501.138336 432.000000,501.000000 418.000000,501.000000 
"/>
<path fill="none" opacity="1.000000" stroke="#000000" stroke-linecap="round" stroke-linejoin="round" stroke-width="10.000000"
	d="
M815.500000,737.500000 
	C804.629883,741.425293 804.548889,738.653564 804.507996,752.500000 
	C804.470154,765.333252 804.383545,778.168335 804.562012,790.999146 
	C804.626038,795.601135 803.442200,799.426697 800.000000,802.500000 
"/>
<path fill="none" opacity="1.000000" stroke="#000000" stroke-linecap="round" stroke-linejoin="round" stroke-width="8.000000"
	d="
M335.500000,101.500000 
	C333.380005,106.436325 330.033142,110.763458 328.481873,115.994629 
	C324.770172,128.511246 324.689819,140.966232 328.395294,153.530884 
	C329.068665,155.814209 329.808014,158.500000 328.500000,161.000000 
"/>
<path fill="none" opacity="1.000000" stroke="#000000" stroke-linecap="round" stroke-linejoin="round" stroke-width="12.000000"
	d="
M770.000000,263.500000 
	C767.761536,269.680237 765.080994,275.225433 759.148071,279.219940 
	C755.300171,281.810608 751.910034,285.867676 749.255981,289.678314 
	C745.571167,294.969147 743.174011,301.341309 741.172424,307.555542 
	C739.828857,311.726807 739.696411,316.240631 738.182800,320.563995 
	C736.260437,326.054596 737.835571,331.887726 739.021851,337.495392 
	C739.380676,339.191895 740.000000,340.833344 740.500000,342.500000 
"/>
<path fill="none" opacity="1.000000" stroke="#000000" stroke-linecap="round" stroke-linejoin="round" stroke-width="7.000000"
	d="
M623.500000,319.500000 
	C622.365295,315.381226 619.870056,314.073914 613.504150,313.457367 
	C604.278015,312.563873 597.380615,316.647919 592.065979,323.550812 
	C586.840393,330.337982 581.361145,336.554779 573.553894,340.603912 
	C568.754761,343.092957 569.716736,347.476227 574.933411,351.584564 
	C577.625732,353.704895 580.619873,353.739746 583.505615,353.895477 
	C589.695007,354.229584 595.852417,354.645020 602.025391,355.233704 
	C605.474731,355.562622 609.197144,353.227570 612.000000,350.500000 
"/>
<path fill="none" opacity="1.000000" stroke="#000000" stroke-linecap="round" stroke-linejoin="round" stroke-width="8.000000"
	d="
M599.000000,751.000000 
	C592.841797,752.129089 589.069824,755.915100 586.442749,761.472961 
	C581.984375,770.904724 577.000793,780.088928 572.574585,789.534973 
	C570.557007,793.840515 567.117737,795.704712 563.000000,797.000000 
"/>
<path fill="none" opacity="1.000000" stroke="#000000" stroke-linecap="round" stroke-linejoin="round" stroke-width="8.000000"
	d="
M465.500000,883.500000 
	C465.846741,878.373230 461.309784,878.374756 458.459015,877.664551 
	C452.226196,876.111694 444.023468,879.979614 441.590607,885.539673 
	C438.730652,892.075684 439.142975,900.426453 444.032196,904.965332 
	C449.779449,910.300903 455.973877,912.028931 463.438385,908.374146 
	C465.119232,907.551270 466.547028,906.450867 468.500000,906.500000 
"/>
<path fill="none" opacity="1.000000" stroke="#000000" stroke-linecap="round" stroke-linejoin="round" stroke-width="7.000000"
	d="
M893.500000,360.000000 
	C886.844238,358.775879 880.812073,355.719238 874.515076,353.458008 
	C863.121521,349.366516 851.757446,345.210449 840.000000,342.250000 
"/>
<path fill="none" opacity="1.000000" stroke="#000000" stroke-linecap="round" stroke-linejoin="round" stroke-width="13.000000"
	d="
M770.000000,244.000000 
	C763.175964,237.745758 754.976074,233.164017 748.532166,226.469040 
	C745.863159,223.696091 742.700684,222.252563 738.997375,222.047028 
	C736.457336,221.906067 734.069275,221.083038 732.067688,219.886749 
	C729.332397,218.252045 726.614746,217.733521 723.510254,217.403564 
	C709.842224,215.950806 707.487976,216.174622 696.500000,221.500000 
"/>
<path fill="none" opacity="1.000000" stroke="#000000" stroke-linecap="round" stroke-linejoin="round" stroke-width="8.000000"
	d="
M342.500000,895.000000 
	C344.500000,895.000000 346.519684,894.825562 348.494537,895.048340 
	C350.530823,895.278015 352.523499,895.894287 354.975464,896.439331 
	C355.943634,895.631897 357.060883,894.165894 358.530121,893.574829 
	C362.973816,891.787170 363.007843,888.100769 362.407013,884.515564 
	C361.708893,880.350098 358.154053,878.926758 354.493103,878.028137 
	C353.707092,877.835205 352.833344,878.000244 352.000000,877.999939 
	C337.995758,877.994995 340.214691,877.104431 340.737610,889.489990 
	C341.021454,896.212952 339.721008,902.833313 340.500000,909.500000 
"/>
<path fill="none" opacity="1.000000" stroke="#000000" stroke-linecap="round" stroke-linejoin="round" stroke-width="7.000000"
	d="
M566.000000,530.249939 
	C553.833313,530.166626 541.666260,530.121704 529.500183,529.982178 
	C524.165710,529.921021 518.833313,529.666626 513.500000,529.500000 
"/>
<path fill="none" opacity="1.000000" stroke="#000000" stroke-linecap="round" stroke-linejoin="round" stroke-width="8.000000"
	d="
M841.000000,521.500000 
	C844.104797,524.805481 847.867065,524.457947 852.009094,524.107361 
	C862.982300,523.178284 873.996460,523.083740 885.002563,523.968445 
	C887.652100,524.181335 890.333313,524.000000 893.000000,524.000000 
"/>
<path fill="none" opacity="1.000000" stroke="#000000" stroke-linecap="round" stroke-linejoin="round" stroke-width="11.000000"
	d="
M217.000000,187.500000 
	C213.837952,196.229340 213.039825,205.434570 211.438049,214.489044 
	C209.968124,222.798279 210.007019,231.137085 210.000000,239.500000 
"/>
<path fill="none" opacity="1.000000" stroke="#000000" stroke-linecap="round" stroke-linejoin="round" stroke-width="13.000000"
	d="
M410.500000,646.500000 
	C412.007721,648.666687 410.009033,650.754456 410.405243,653.016602 
	C411.204132,657.577515 412.881348,659.348022 417.499756,659.507019 
	C425.912415,659.796631 434.196777,658.661133 442.512360,657.596436 
	C445.850006,657.169067 447.691589,654.549805 450.500000,653.500000 
"/>
<path fill="none" opacity="1.000000" stroke="#000000" stroke-linecap="round" stroke-linejoin="round" stroke-width="7.000000"
	d="
M536.000000,239.000000 
	C541.833313,245.166656 547.685547,251.315613 553.493896,257.505737 
	C557.990723,262.298187 563.559448,265.342499 569.460449,268.085083 
	C574.675415,270.508850 580.487488,272.350800 583.500000,278.000000 
"/>
<path fill="none" opacity="1.000000" stroke="#000000" stroke-linecap="round" stroke-linejoin="round" stroke-width="7.000000"
	d="
M622.500000,315.500000 
	C627.080566,309.165771 633.662720,306.196411 641.000244,304.501038 
	C644.370483,303.722351 645.838501,305.420776 645.448425,308.493439 
	C644.528687,315.737946 640.814209,321.268890 634.497437,324.995636 
	C632.824158,325.982880 631.119690,326.917175 629.345520,327.923462 
	C627.841553,327.312775 626.619690,325.534058 624.500000,326.000000 
"/>
<path fill="none" opacity="1.000000" stroke="#000000" stroke-linecap="round" stroke-linejoin="round" stroke-width="15.000000"
	d="
M778.000000,234.000000 
	C778.848511,238.537598 780.074890,242.966461 777.592834,247.550278 
	C776.144470,250.225174 779.177612,258.218201 782.026245,259.957001 
	C786.412537,262.634369 790.106445,265.758118 792.599731,270.446991 
	C794.318787,273.679962 797.442383,275.808075 800.358948,278.173889 
	C805.870056,282.644257 811.019958,287.809021 813.927490,294.531372 
	C814.975464,296.954468 816.202026,299.220337 817.429871,301.537170 
	C822.467712,311.043854 825.376526,321.070282 823.761719,332.001740 
	C823.591248,333.155518 823.583313,334.333344 823.500000,335.500000 
"/>
<path fill="none" opacity="1.000000" stroke="#000000" stroke-linecap="round" stroke-linejoin="round" stroke-width="10.000000"
	d="
M801.500000,634.000000 
	C797.467102,626.264465 785.303467,624.997437 777.500000,631.500000 
	C772.099915,635.999756 770.064209,642.877563 773.613037,646.900269 
	C776.184570,649.815186 777.387268,653.205627 779.000000,656.500000 
"/>
<path fill="none" opacity="1.000000" stroke="#000000" stroke-linecap="round" stroke-linejoin="round" stroke-width="7.000000"
	d="
M511.500000,450.000000 
	C514.160461,453.015533 517.685669,453.884399 521.500061,453.996948 
	C532.833374,454.331390 544.188965,454.419739 555.506653,454.614288 
	C564.716064,454.772583 573.779907,456.280334 583.001770,456.197052 
	C591.826843,456.117340 600.666687,457.666687 609.500000,458.500031 
"/>
<path fill="none" opacity="1.000000" stroke="#000000" stroke-linecap="round" stroke-linejoin="round" stroke-width="7.000000"
	d="
M343.000000,513.750000 
	C328.700134,512.116211 314.407684,510.405701 300.000458,509.984558 
	C298.163818,509.930908 296.333344,509.666656 294.500000,509.500000 
"/>
<path fill="none" opacity="1.000000" stroke="#000000" stroke-linecap="round" stroke-linejoin="round" stroke-width="11.000000"
	d="
M207.000000,248.500000 
	C212.746475,251.073502 215.742859,256.026611 217.964951,261.514191 
	C220.003952,266.549713 223.950241,269.792419 228.004074,272.994843 
	C229.311462,274.027679 231.238663,274.714508 231.904144,276.047852 
	C235.374466,283.001068 241.434555,288.909546 240.990448,297.499512 
	C240.645920,304.162994 242.863892,310.888275 240.500000,317.500000 
"/>
<path fill="none" opacity="1.000000" stroke="#000000" stroke-linecap="round" stroke-linejoin="round" stroke-width="6.000000"
	d="
M344.500000,491.500000 
	C330.666656,491.500000 316.833344,491.500000 303.000000,491.500000 
	C300.833344,491.500000 298.666656,491.500000 296.500000,491.500000 
"/>
<path fill="none" opacity="1.000000" stroke="#000000" stroke-linecap="round" stroke-linejoin="round" stroke-width="9.000000"
	d="
M587.500000,896.499939 
	C590.666687,896.333313 593.831543,896.088440 597.000366,896.016785 
	C602.958252,895.882141 607.025696,892.060486 607.000000,886.500000 
	C606.976624,881.434570 603.026672,878.077209 597.000000,878.000061 
	C586.000000,877.859192 586.000000,877.859131 586.000000,889.000000 
	C586.000000,895.666687 586.000000,902.333313 586.000000,909.000000 
"/>
<path fill="none" opacity="1.000000" stroke="#000000" stroke-linecap="round" stroke-linejoin="round" stroke-width="8.000000"
	d="
M342.000000,410.500000 
	C335.179321,413.510529 328.097443,412.481293 320.996796,412.053070 
	C312.298828,411.528473 304.006989,408.951202 295.489624,407.563751 
	C292.422119,407.064087 290.442413,404.736084 287.546692,403.847748 
	C282.872986,402.414062 278.500000,400.000000 274.000000,398.000000 
"/>
<path fill="none" opacity="1.000000" stroke="#000000" stroke-linecap="round" stroke-linejoin="round" stroke-width="9.000000"
	d="
M821.000000,879.000000 
	C821.000000,888.836182 821.000000,898.672302 821.000000,908.441956 
	C827.077515,910.348816 832.834839,909.140686 838.500000,909.500000 
"/>
<path fill="none" opacity="1.000000" stroke="#000000" stroke-linecap="round" stroke-linejoin="round" stroke-width="7.000000"
	d="
M442.250000,112.250000 
	C449.450684,118.611206 454.395081,126.521584 457.410431,135.529984 
	C458.952606,140.137299 459.972992,145.167404 458.846252,149.963882 
	C458.050201,153.352676 459.533020,155.749069 460.500000,158.500000 
"/>
<path fill="none" opacity="1.000000" stroke="#000000" stroke-linecap="round" stroke-linejoin="round" stroke-width="13.000000"
	d="
M824.250000,242.500000 
	C824.709351,241.645325 824.637695,241.038940 823.499878,241.002975 
	C818.100830,240.832306 813.370239,241.781006 808.347046,244.740356 
	C799.914551,249.708344 790.961853,254.098953 781.464722,256.879425 
	C779.029968,257.592224 776.879639,258.539978 775.037476,260.045868 
	C771.705017,262.769989 768.093994,263.836884 764.010132,262.469727 
	C759.135010,260.837677 755.078857,263.151978 751.050964,265.105072 
	C749.551514,265.832153 748.117615,267.102783 746.507629,266.929169 
	C739.793396,266.205170 735.668396,270.325378 731.495422,274.495392 
	C729.280823,276.708466 727.160583,278.879883 724.039673,280.101349 
	C720.104370,281.641541 709.660950,294.959229 708.493286,298.998047 
	C706.741577,305.056641 704.946350,311.102448 705.000000,317.500000 
"/>
<path fill="none" opacity="1.000000" stroke="#000000" stroke-linecap="round" stroke-linejoin="round" stroke-width="10.000000"
	d="
M740.500000,657.500000 
	C738.978394,659.971069 738.066345,662.683716 737.515259,665.502991 
	C736.395447,671.230896 733.138367,675.735718 728.942688,679.434998 
	C724.533630,683.322449 716.434692,683.158691 710.530090,679.452026 
	C709.229797,678.635559 708.294678,677.243958 706.500000,677.500000 
"/>
<path fill="none" opacity="1.000000" stroke="#000000" stroke-linecap="round" stroke-linejoin="round" stroke-width="9.000000"
	d="
M674.000000,748.500000 
	C668.334778,750.046814 665.959595,754.733398 664.067139,759.526489 
	C661.145691,766.925903 658.072754,774.350952 656.143616,782.036072 
	C653.467163,792.698486 646.813599,801.920959 645.481384,812.997742 
	C645.190979,815.412109 644.099243,817.024231 641.550537,818.117798 
	C637.952332,819.661621 634.612427,821.734253 630.500000,821.500000 
"/>
<path fill="none" opacity="1.000000" stroke="#000000" stroke-linecap="round" stroke-linejoin="round" stroke-width="7.000000"
	d="
M430.250000,147.000000 
	C435.131317,156.302307 436.834564,166.240906 434.854065,176.471756 
	C433.840271,181.708862 433.150055,186.461487 436.500000,191.000000 
"/>
<path fill="none" opacity="1.000000" stroke="#000000" stroke-linecap="round" stroke-linejoin="round" stroke-width="8.000000"
	d="
M356.500000,204.500000 
	C355.375214,215.293228 360.675049,223.095886 368.550720,229.437012 
	C372.590668,232.689789 377.039856,235.435867 382.489349,236.088898 
	C384.090729,236.280792 385.564362,237.538620 387.249084,238.384506 
	C389.166534,237.499695 391.333252,236.499847 393.500000,235.500000 
"/>
<path fill="none" opacity="1.000000" stroke="#000000" stroke-linecap="round" stroke-linejoin="round" stroke-width="9.000000"
	d="
M459.500000,748.000000 
	C454.570038,749.403381 451.866638,753.286377 450.090942,757.537964 
	C446.454529,766.244751 442.499298,774.957520 440.217834,784.054626 
	C437.555298,794.671265 431.120789,803.952087 429.995636,814.999573 
	C429.844238,816.486267 428.785858,816.931458 427.536865,817.571899 
	C423.710876,819.533630 419.857300,821.238525 415.500000,821.500000 
"/>
<path fill="none" opacity="1.000000" stroke="#000000" stroke-linecap="round" stroke-linejoin="round" stroke-width="18.000000"
	d="
M169.000000,743.000000 
	C168.722824,746.013733 169.716553,748.390137 171.341934,751.094971 
	C175.981277,758.815552 178.568481,767.525757 181.425583,776.025024 
	C185.474350,788.069214 190.789200,799.648926 194.135559,811.963135 
	C195.333023,816.369690 200.443039,817.034790 204.037445,818.928955 
	C206.337784,820.141174 209.000000,820.666687 211.500000,821.500000 
"/>
<path fill="none" opacity="1.000000" stroke="#000000" stroke-linecap="round" stroke-linejoin="round" stroke-width="8.000000"
	d="
M908.500000,738.000000 
	C904.080811,737.729492 900.377075,739.901794 896.493774,741.484741 
	C895.307190,741.968445 894.902466,742.763672 894.426453,743.971008 
	C889.939087,755.354858 882.582703,765.194702 876.965637,775.982117 
	C875.172485,779.426025 871.682678,781.090881 868.500000,783.000000 
"/>
<path fill="none" opacity="1.000000" stroke="#000000" stroke-linecap="round" stroke-linejoin="round" stroke-width="8.000000"
	d="
M480.000000,164.500000 
	C478.237091,173.431015 471.799652,178.399918 464.474823,182.454498 
	C460.112213,184.869400 455.476318,186.786118 451.012512,189.024963 
	C449.394653,189.836380 447.669861,190.347046 446.012939,189.946503 
	C439.751160,188.432724 435.564056,191.185257 431.961487,195.971008 
	C427.385376,202.050064 421.738647,207.399384 419.511444,215.003357 
	C419.421539,215.310349 419.500000,215.666672 419.500000,216.701431 
	C425.381317,220.069382 429.994537,225.499023 435.185608,230.299301 
	C437.272247,232.228897 438.261871,234.568375 439.903809,236.578568 
	C445.765228,243.754623 453.336426,248.706848 461.048431,253.420792 
	C465.976624,256.433136 466.010895,258.669922 462.864868,262.385590 
	C460.703186,264.938660 461.160004,268.918274 457.533325,270.573059 
	C454.196472,272.095581 450.657654,270.612610 447.537811,271.617432 
	C441.776917,273.472839 435.498718,270.824371 430.000000,274.000000 
	C422.901428,271.375427 414.797455,273.674255 408.068390,269.878723 
	C404.685883,267.970825 401.956757,264.836609 401.500000,260.500000 
"/>
<path fill="none" opacity="1.000000" stroke="#000000" stroke-linecap="round" stroke-linejoin="round" stroke-width="9.000000"
	d="
M168.500000,748.500000 
	C163.515625,750.355408 160.659958,753.992554 158.941422,758.979797 
	C156.158966,767.054810 152.562408,774.868469 150.107941,783.032471 
	C146.852844,793.859497 141.465103,803.933472 139.112854,815.023926 
	C138.778137,816.602051 138.166367,817.279663 136.991745,817.728394 
	C133.520477,819.054565 130.301712,821.094788 126.500000,821.500000 
"/>
<path fill="none" opacity="1.000000" stroke="#000000" stroke-linecap="round" stroke-linejoin="round" stroke-width="11.000000"
	d="
M267.000000,630.500000 
	C264.575928,636.407349 266.165253,642.203674 267.504852,647.998901 
	C268.959717,654.292542 267.317932,657.643555 261.489624,658.422302 
	C250.015106,659.955566 238.474075,661.911133 227.000000,658.250000 
"/>
<path fill="none" opacity="1.000000" stroke="#000000" stroke-linecap="round" stroke-linejoin="round" stroke-width="18.000000"
	d="
M459.500000,743.500000 
	C459.521423,746.945374 461.398438,749.603516 462.898560,752.551636 
	C467.599487,761.790222 470.618073,771.720825 474.054382,781.480835 
	C476.611816,788.744690 480.968292,795.620056 482.186035,803.051453 
	C483.887695,813.436218 490.894562,817.123840 499.000671,820.498413 
	C499.829132,820.843384 500.666656,821.166687 501.500000,821.500000 
"/>
<path fill="none" opacity="1.000000" stroke="#000000" stroke-linecap="round" stroke-linejoin="round" stroke-width="18.000000"
	d="
M674.250000,743.000000 
	C673.750732,746.989319 676.288940,749.798462 677.940063,753.030640 
	C682.009644,760.996948 684.717590,769.549011 687.392456,778.033875 
	C690.966675,789.371765 696.137207,800.082825 699.757874,811.417664 
	C701.408630,816.585632 707.409180,818.644104 712.524963,820.428345 
	C713.784363,820.867676 715.270569,820.750916 716.500000,821.500000 
"/>
<path fill="none" opacity="1.000000" stroke="#000000" stroke-linecap="round" stroke-linejoin="round" stroke-width="6.000000"
	d="
M174.500000,330.000000 
	C162.333328,335.000000 150.165207,339.996460 138.002365,345.005768 
	C136.839706,345.484589 135.013138,345.346466 135.500000,347.500000 
"/>
<path fill="none" opacity="1.000000" stroke="#000000" stroke-linecap="round" stroke-linejoin="round" stroke-width="7.000000"
	d="
M492.500000,450.000000 
	C489.636597,453.004425 486.133331,454.127014 481.999146,454.042236 
	C474.668884,453.891846 467.287506,454.524292 460.009766,453.888123 
	C445.929962,452.657349 432.016327,455.334229 417.999481,455.024017 
	C417.170227,455.005646 416.333344,455.333313 415.500000,455.500000 
"/>
<path fill="none" opacity="1.000000" stroke="#000000" stroke-linecap="round" stroke-linejoin="round" stroke-width="14.000000"
	d="
M811.500000,649.750000 
	C803.561096,656.823669 794.087646,658.243164 784.009583,656.926453 
	C781.289490,656.571106 778.987976,656.791321 776.471619,657.937683 
	C769.559448,661.086670 762.163391,658.957947 754.995544,659.432251 
	C753.192139,659.551575 751.344971,658.651184 749.497864,658.533020 
	C743.092957,658.123169 738.490723,655.881470 736.326111,649.055176 
	C734.931885,644.658447 732.525269,640.525024 731.250000,636.000000 
"/>
<path fill="none" opacity="1.000000" stroke="#000000" stroke-linecap="round" stroke-linejoin="round" stroke-width="8.000000"
	d="
M403.000000,216.500000 
	C402.500000,217.000000 402.051514,217.568359 401.492279,217.989746 
	C393.018982,224.374588 393.172180,224.223114 385.958923,216.538559 
	C377.634521,207.670288 367.438354,202.813690 355.000000,203.500000 
"/>
<path fill="none" opacity="1.000000" stroke="#000000" stroke-linecap="round" stroke-linejoin="round" stroke-width="8.000000"
	d="
M399.500000,157.500000 
	C399.454895,168.372360 399.564423,179.231857 393.589142,189.054214 
	C392.451874,190.923691 391.598969,192.941772 390.000000,194.500000 
"/>
<path fill="none" opacity="1.000000" stroke="#000000" stroke-linecap="round" stroke-linejoin="round" stroke-width="9.000000"
	d="
M322.000000,881.500000 
	C321.976776,879.965637 322.253845,877.946167 320.002930,878.058472 
	C313.825989,878.366455 307.484833,876.757507 301.499878,879.498779 
	C301.500000,889.166687 301.500000,898.833313 301.500000,908.654724 
	C307.755280,910.316101 314.167358,909.153259 320.500000,909.500000 
"/>
<path fill="none" opacity="1.000000" stroke="#000000" stroke-linecap="round" stroke-linejoin="round" stroke-width="7.000000"
	d="
M824.500000,437.000000 
	C820.166138,441.560547 814.612610,441.323517 808.999207,441.014709 
	C801.835815,440.620636 794.666687,440.333313 787.500000,439.999969 
"/>
<path fill="none" opacity="1.000000" stroke="#000000" stroke-linecap="round" stroke-linejoin="round" stroke-width="8.000000"
	d="
M736.000000,381.500000 
	C732.734680,373.003448 726.198975,368.619293 717.002441,369.051605 
	C714.139099,369.186157 711.510681,368.272980 709.048523,367.367920 
	C705.035400,365.892731 701.440430,365.807343 697.460571,367.401581 
	C694.998230,368.387970 692.271729,368.806976 689.517395,369.142548 
	C682.666504,369.977203 677.626953,374.161713 673.500000,379.500000 
"/>
<path fill="none" opacity="1.000000" stroke="#000000" stroke-linecap="round" stroke-linejoin="round" stroke-width="6.000000"
	d="
M150.000000,366.500000 
	C153.107193,373.028961 157.648483,378.864288 159.490631,386.002411 
	C160.389557,389.485718 161.839554,392.817352 162.044662,396.497498 
	C162.174454,398.826385 163.191833,400.904083 165.000000,402.500000 
"/>
<path fill="none" opacity="1.000000" stroke="#000000" stroke-linecap="round" stroke-linejoin="round" stroke-width="9.000000"
	d="
M242.500000,880.500000 
	C241.423874,879.909485 241.847382,877.848145 239.999603,877.995056 
	C233.832153,878.485596 227.484848,876.757507 221.499908,879.498779 
	C221.500000,889.166687 221.500000,898.833313 221.500000,908.368347 
	C227.699234,911.381104 234.161331,909.267944 240.500000,909.500000 
"/>
<path fill="none" opacity="1.000000" stroke="#000000" stroke-linecap="round" stroke-linejoin="round" stroke-width="7.000000"
	d="
M712.500000,449.500000 
	C705.637939,450.498322 699.115479,452.758636 692.035828,453.397369 
	C683.523987,454.165283 675.049561,454.993591 666.500061,454.976471 
	C664.833008,454.973145 663.166687,454.666656 661.500000,454.499969 
"/>
<path fill="none" opacity="1.000000" stroke="#000000" stroke-linecap="round" stroke-linejoin="round" stroke-width="9.000000"
	d="
M169.500000,490.000000 
	C166.604492,491.273773 163.490967,492.045166 160.525558,490.931915 
	C153.977692,488.473846 147.204727,489.295624 140.500443,488.990387 
	C138.164368,488.884003 135.833328,488.666656 133.500000,488.499969 
"/>
<path fill="none" opacity="1.000000" stroke="#000000" stroke-linecap="round" stroke-linejoin="round" stroke-width="13.000000"
	d="
M854.500000,201.000000 
	C849.166687,201.166672 843.833435,201.338074 838.499878,201.495789 
	C837.500732,201.525330 836.006897,201.070236 835.575195,201.565536 
	C830.435730,207.462372 820.986572,205.801773 816.317017,212.879257 
	C814.818726,215.150162 811.229065,216.128036 808.483093,217.465302 
	C805.516113,218.910217 803.131348,221.154541 802.144775,224.049332 
	C801.052368,227.254868 798.941406,229.468979 797.074036,232.053482 
	C792.654724,238.169632 786.399353,241.029266 779.500000,243.000000 
"/>
<path fill="none" opacity="1.000000" stroke="#000000" stroke-linecap="round" stroke-linejoin="round" stroke-width="9.000000"
	d="
M690.000000,788.500000 
	C678.472351,792.243835 666.754822,791.556641 655.000000,790.000000 
"/>
<path fill="none" opacity="1.000000" stroke="#000000" stroke-linecap="round" stroke-linejoin="round" stroke-width="6.000000"
	d="
M701.500000,485.500000 
	C693.333191,485.341431 685.164734,485.755219 676.993713,485.075836 
	C673.531494,484.787964 670.000000,485.333344 666.500000,485.500000 
"/>
<path fill="none" opacity="1.000000" stroke="#000000" stroke-linecap="round" stroke-linejoin="round" stroke-width="9.000000"
	d="
M184.500000,788.000000 
	C172.999680,792.381348 161.294556,791.984131 149.500000,789.500000 
"/>
<path fill="none" opacity="1.000000" stroke="#000000" stroke-linecap="round" stroke-linejoin="round" stroke-width="9.000000"
	d="
M475.000000,787.500000 
	C463.583221,792.539551 451.845154,791.957092 440.000000,789.500000 
"/>
<path fill="none" opacity="1.000000" stroke="#000000" stroke-linecap="round" stroke-linejoin="round" stroke-width="7.000000"
	d="
M352.000000,462.000000 
	C347.587067,463.902954 343.218079,462.942474 339.020142,461.443573 
	C334.503479,459.830902 330.214447,457.692596 325.529724,456.392883 
	C319.834015,454.812683 314.465515,455.619476 309.566040,458.128937 
	C304.682648,460.630157 299.764313,461.366913 294.501007,460.986023 
	C291.835205,460.793121 289.109406,461.582794 286.500000,460.500000 
"/>
<path fill="none" opacity="1.000000" stroke="#000000" stroke-linecap="round" stroke-linejoin="round" stroke-width="9.000000"
	d="
M801.000000,878.000000 
	C794.502686,878.535156 787.820801,876.670349 781.499939,879.499207 
	C781.500000,889.166687 781.500000,898.833313 781.500000,908.654724 
	C787.755310,910.316101 794.167358,909.153259 800.500000,909.500000 
"/>
<path fill="none" opacity="1.000000" stroke="#000000" stroke-linecap="round" stroke-linejoin="round" stroke-width="14.000000"
	d="
M787.500000,441.000000 
	C787.500000,445.666656 787.500000,450.333344 787.500000,455.000000 
	C787.500000,462.548309 786.616089,463.677643 778.994019,465.474518 
	C777.535767,465.818329 776.000000,465.833344 774.500000,466.000000 
"/>
<path fill="none" opacity="1.000000" stroke="#000000" stroke-linecap="round" stroke-linejoin="round" stroke-width="6.000000"
	d="
M589.500000,516.500000 
	C577.834717,516.764038 566.153809,515.931213 554.500000,517.000000 
"/>
<path fill="none" opacity="1.000000" stroke="#000000" stroke-linecap="round" stroke-linejoin="round" stroke-width="8.000000"
	d="
M859.500000,425.000000 
	C852.060913,424.027985 845.113403,425.026581 838.436462,428.890259 
	C834.278320,431.296417 829.525696,431.794037 824.969482,429.050629 
	C824.357910,428.682404 823.331726,428.966125 822.500244,429.005676 
	C817.942383,429.222351 813.855286,428.217590 809.926086,425.611450 
	C807.255981,423.840485 803.938538,422.875397 800.500000,423.500000 
"/>
<path fill="none" opacity="1.000000" stroke="#000000" stroke-linecap="round" stroke-linejoin="round" stroke-width="6.000000"
	d="
M258.500000,506.500000 
	C247.641159,504.002106 236.472397,504.061035 225.500000,502.500000 
"/>
<path fill="none" opacity="1.000000" stroke="#000000" stroke-linecap="round" stroke-linejoin="round" stroke-width="13.000000"
	d="
M720.500000,258.500000 
	C723.862183,255.310425 727.733337,252.664307 729.590088,248.036148 
	C730.664307,245.358673 737.147522,244.399231 741.010864,245.460388 
	C752.625366,248.650543 764.291321,251.640717 776.500000,249.000000 
"/>
<path fill="none" opacity="1.000000" stroke="#000000" stroke-linecap="round" stroke-linejoin="round" stroke-width="8.000000"
	d="
M811.000000,390.500000 
	C810.919800,391.915344 811.098145,393.011200 812.461243,394.050781 
	C820.693359,400.328979 822.645325,410.268738 826.273254,419.093201 
	C827.397400,421.827362 825.833374,425.666656 825.500000,429.000000 
"/>
<path fill="none" opacity="1.000000" stroke="#000000" stroke-linecap="round" stroke-linejoin="round" stroke-width="15.000000"
	d="
M181.000000,382.500000 
	C179.248688,386.832367 174.577713,389.042633 173.000870,393.500305 
	C171.016342,399.110474 166.187363,402.969757 163.901794,408.459106 
	C162.763031,411.194153 162.450974,413.409851 163.946136,416.030731 
	C164.996338,417.871643 165.667816,419.603851 164.135529,422.083740 
	C161.091461,427.010315 162.584427,432.358856 164.250000,437.500000 
"/>
<path fill="none" opacity="1.000000" stroke="#000000" stroke-linecap="round" stroke-linejoin="round" stroke-width="8.000000"
	d="
M600.000000,625.500000 
	C596.568665,625.557495 593.569214,626.492004 590.962219,628.960083 
	C587.447632,632.287415 583.726440,635.406189 579.982849,638.479126 
	C576.375244,641.440430 575.152710,645.033447 576.500000,649.500000 
"/>
<path fill="none" opacity="1.000000" stroke="#000000" stroke-linecap="round" stroke-linejoin="round" stroke-width="8.000000"
	d="
M857.500000,409.500000 
	C849.836365,407.877106 844.366394,411.658356 838.933533,416.424255 
	C832.198303,422.332642 822.683777,424.240082 814.989502,416.009827 
	C811.630554,412.416931 807.995300,409.173737 803.000000,408.000000 
"/>
<path fill="none" opacity="1.000000" stroke="#000000" stroke-linecap="round" stroke-linejoin="round" stroke-width="12.000000"
	d="
M214.500000,250.000000 
	C221.835892,246.271637 229.573181,243.069946 237.546692,241.791092 
	C244.834793,240.622177 252.386749,236.962921 260.028656,240.944977 
	C260.815125,241.354782 262.097717,241.271698 262.983185,240.953247 
	C266.946686,239.527847 270.068176,241.527939 272.952820,243.566757 
	C276.321442,245.947678 279.333313,248.833344 282.500000,251.500000 
"/>
<path fill="none" opacity="1.000000" stroke="#000000" stroke-linecap="round" stroke-linejoin="round" stroke-width="8.000000"
	d="
M391.500000,879.500000 
	C391.500000,889.500000 391.500000,899.500000 391.500000,909.500000 
"/>
<path fill="none" opacity="1.000000" stroke="#000000" stroke-linecap="round" stroke-linejoin="round" stroke-width="8.000000"
	d="
M501.750000,411.500000 
	C501.833344,421.333344 501.916687,431.166656 502.000000,441.000000 
"/>
<path fill="none" opacity="1.000000" stroke="#000000" stroke-linecap="round" stroke-linejoin="round" stroke-width="8.000000"
	d="
M448.000000,429.000000 
	C444.925720,428.434082 441.953217,427.614990 438.962921,426.610382 
	C432.340820,424.385681 425.938507,425.066620 420.524628,430.026855 
	C419.841827,430.652435 419.183167,430.399323 418.500000,430.500000 
"/>
<path fill="none" opacity="1.000000" stroke="#000000" stroke-linecap="round" stroke-linejoin="round" stroke-width="7.000000"
	d="
M848.500000,390.000000 
	C842.366455,391.339142 839.364502,396.098419 836.502197,401.001282 
	C833.678223,405.838470 832.364197,411.432098 829.000000,416.000000 
"/>
<path fill="none" opacity="1.000000" stroke="#000000" stroke-linecap="round" stroke-linejoin="round" stroke-width="6.000000"
	d="
M133.500000,409.000000 
	C141.934906,409.681915 148.494354,413.902893 153.978546,420.019226 
	C156.301819,422.610291 159.028122,424.206146 162.500000,424.500000 
"/>
<path fill="none" opacity="1.000000" stroke="#000000" stroke-linecap="round" stroke-linejoin="round" stroke-width="7.000000"
	d="
M589.500000,408.500000 
	C582.749329,408.248016 576.806396,410.313202 571.477539,414.471161 
	C568.137329,417.077332 563.520447,416.700348 560.000000,419.000000 
"/>
<path fill="none" opacity="1.000000" stroke="#000000" stroke-linecap="round" stroke-linejoin="round" stroke-width="7.000000"
	d="
M165.000000,438.000000 
	C170.569107,443.016937 177.659500,444.794373 184.522949,446.926086 
	C187.891785,447.972473 191.258102,446.609619 194.500000,445.500000 
"/>
<path fill="none" opacity="1.000000" stroke="#000000" stroke-linecap="round" stroke-linejoin="round" stroke-width="8.000000"
	d="
M739.000000,878.000000 
	C751.500000,878.000000 751.500000,878.000000 751.500000,890.500000 
	C751.500000,896.833313 751.500000,903.166687 751.500000,909.500000 
"/>
<path fill="none" opacity="1.000000" stroke="#000000" stroke-linecap="round" stroke-linejoin="round" stroke-width="8.000000"
	d="
M737.000000,358.000000 
	C729.058350,356.891632 721.368713,357.526947 713.975769,360.947662 
	C712.137939,361.798035 710.000000,361.999969 708.000000,362.499969 
"/>
<path fill="none" opacity="1.000000" stroke="#000000" stroke-linecap="round" stroke-linejoin="round" stroke-width="8.000000"
	d="
M588.500000,425.500000 
	C584.789673,423.752258 581.251465,423.339691 576.948486,424.258698 
	C571.494934,425.423401 565.666687,424.833344 560.000000,425.000000 
"/>
<path fill="none" opacity="1.000000" stroke="#000000" stroke-linecap="round" stroke-linejoin="round" stroke-width="8.000000"
	d="
M835.500000,497.000000 
	C829.794922,497.813141 821.101685,505.269867 820.038269,510.507782 
	C819.354919,513.874084 821.420227,516.815063 822.000000,520.000000 
"/>
<path fill="none" opacity="1.000000" stroke="#000000" stroke-linecap="round" stroke-linejoin="round" stroke-width="6.000000"
	d="
M138.500000,390.000000 
	C145.320541,392.835602 150.223969,397.713409 154.067657,403.958344 
	C156.043167,407.167999 158.127457,410.539215 162.000000,412.000000 
"/>
<path fill="none" opacity="1.000000" stroke="#000000" stroke-linecap="round" stroke-linejoin="round" stroke-width="8.000000"
	d="
M699.500000,364.000000 
	C691.113586,357.030426 681.523071,356.803986 671.500000,359.000000 
"/>
<path fill="none" opacity="1.000000" stroke="#000000" stroke-linecap="round" stroke-linejoin="round" stroke-width="7.000000"
	d="
M162.500000,435.500000 
	C158.966156,436.974030 155.533508,437.835907 151.475220,437.145691 
	C145.829239,436.185516 140.030563,436.457428 134.500000,438.500000 
"/>
<path fill="none" opacity="1.000000" stroke="#000000" stroke-linecap="round" stroke-linejoin="round" stroke-width="13.000000"
	d="
M197.500000,251.500000 
	C189.046295,248.972412 180.587524,248.825455 171.982071,250.926575 
	C168.252075,251.837326 163.822906,249.730759 160.561676,252.570831 
	C156.150360,256.412415 149.737534,255.676727 145.536163,259.539337 
	C140.793259,263.899841 137.295395,269.336304 133.500000,274.500000 
"/>
<path fill="none" opacity="1.000000" stroke="#000000" stroke-linecap="round" stroke-linejoin="round" stroke-width="12.000000"
	d="
M264.500000,211.000000 
	C257.681824,209.479965 249.652145,209.241211 244.860123,212.963593 
	C238.632278,217.801346 229.937790,219.627075 226.091568,228.319275 
	C224.184189,232.629822 218.989532,236.300995 213.520950,238.064926 
	C209.151932,239.474152 206.750137,242.679916 207.036499,247.845047 
	C201.670029,248.455719 197.411072,251.061722 195.038437,256.018402 
	C192.230560,261.884277 185.593018,262.747406 181.399628,266.898621 
	C176.112534,272.132507 168.069122,274.665924 166.000000,283.000000 
	C157.854980,290.085968 158.237381,300.068054 157.000000,309.500000 
"/>
<path fill="none" opacity="1.000000" stroke="#000000" stroke-linecap="round" stroke-linejoin="round" stroke-width="8.000000"
	d="
M454.500000,205.000000 
	C455.748993,218.269791 446.827393,225.015060 437.500000,231.500000 
"/>
<path fill="none" opacity="1.000000" stroke="#000000" stroke-linecap="round" stroke-linejoin="round" stroke-width="8.000000"
	d="
M453.500000,206.500000 
	C445.340637,204.829819 439.995331,209.994125 434.556885,214.567657 
	C432.056274,216.670563 430.166656,219.500000 428.000000,222.000000 
"/>
<path fill="none" opacity="1.000000" stroke="#000000" stroke-linecap="round" stroke-linejoin="round" stroke-width="7.000000"
	d="
M703.000061,365.500000 
	C701.833374,361.833313 701.021362,358.002838 699.420471,354.536774 
	C696.731750,348.715240 692.105347,344.561310 686.500000,341.500000 
"/>
<path fill="none" opacity="1.000000" stroke="#000000" stroke-linecap="round" stroke-linejoin="round" stroke-width="8.000000"
	d="
M449.000000,418.000000 
	C444.654083,418.140381 440.816223,417.399719 437.416107,414.086090 
	C433.648499,410.414215 428.803711,409.118500 423.500000,410.500000 
"/>
<path fill="none" opacity="1.000000" stroke="#000000" stroke-linecap="round" stroke-linejoin="round" stroke-width="8.000000"
	d="
M533.500000,884.000000 
	C531.664246,886.374390 531.433960,889.118896 531.475098,892.000366 
	C531.558411,897.832458 531.500000,903.666687 531.500000,909.500000 
"/>
<path fill="none" opacity="1.000000" stroke="#000000" stroke-linecap="round" stroke-linejoin="round" stroke-width="8.000000"
	d="
M561.500000,884.000000 
	C563.335754,886.374390 563.566040,889.118896 563.524902,892.000366 
	C563.441589,897.832458 563.500000,903.666687 563.500000,909.500000 
"/>
<path fill="none" opacity="1.000000" stroke="#000000" stroke-linecap="round" stroke-linejoin="round" stroke-width="8.000000"
	d="
M407.000000,397.000000 
	C400.068573,399.142517 395.241241,404.739594 388.985504,407.971954 
	C385.257843,409.898071 381.976898,413.907562 377.000000,411.000000 
"/>
<path fill="none" opacity="1.000000" stroke="#000000" stroke-linecap="round" stroke-linejoin="round" stroke-width="13.000000"
	d="
M570.500000,650.500000 
	C574.696594,650.459534 578.861267,650.358765 583.012207,651.453796 
	C589.459351,653.154419 595.675903,650.616821 602.000000,650.000000 
"/>
<path fill="none" opacity="1.000000" stroke="#000000" stroke-linecap="round" stroke-linejoin="round" stroke-width="9.000000"
	d="
M587.500000,440.500000 
	C584.072144,435.513367 578.656067,435.436615 573.495483,435.062408 
	C569.807556,434.794983 566.241577,434.418762 563.000000,432.500000 
"/>
<path fill="none" opacity="1.000000" stroke="#000000" stroke-linecap="round" stroke-linejoin="round" stroke-width="8.000000"
	d="
M448.500000,433.500000 
	C445.186615,435.795349 441.512146,436.689026 437.499176,436.519226 
	C433.605865,436.354523 430.230957,437.793335 427.547028,440.545837 
	C426.603668,441.513367 426.093628,442.879028 424.500000,443.000000 
"/>
<path fill="none" opacity="1.000000" stroke="#000000" stroke-linecap="round" stroke-linejoin="round" stroke-width="8.000000"
	d="
M723.500000,341.500000 
	C715.103882,345.198761 708.800659,350.593964 707.987549,360.498962 
	C707.822815,362.505371 706.320312,363.713562 705.000000,365.000000 
"/>
<path fill="none" opacity="1.000000" stroke="#000000" stroke-linecap="round" stroke-linejoin="round" stroke-width="6.000000"
	d="
M573.500000,394.000000 
	C569.802368,394.604401 569.807800,398.171204 568.592590,400.547363 
	C566.116516,405.389130 564.166626,410.500000 562.000000,415.500000 
"/>
<path fill="none" opacity="1.000000" stroke="#000000" stroke-linecap="round" stroke-linejoin="round" stroke-width="13.000000"
	d="
M203.000000,237.000000 
	C199.133362,231.122208 195.607254,224.992874 191.767441,219.152908 
	C186.757660,211.533478 180.348404,204.581390 171.458710,201.105621 
	C167.706497,199.638535 163.500000,199.333328 159.500000,198.500000 
"/>
<path fill="none" opacity="1.000000" stroke="#000000" stroke-linecap="round" stroke-linejoin="round" stroke-width="7.000000"
	d="
M498.000000,880.000000 
	C494.836945,881.288574 493.859375,884.268311 492.481384,886.990601 
	C489.223389,893.426880 488.404541,900.776062 484.661896,907.095886 
	C483.500336,909.057251 482.122375,910.256897 480.500000,911.500000 
"/>
<path fill="none" opacity="1.000000" stroke="#000000" stroke-linecap="round" stroke-linejoin="round" stroke-width="7.000000"
	d="
M552.000000,431.500000 
	C549.506226,433.806122 548.826050,436.682098 548.956238,440.001709 
	C549.132324,444.494812 549.000000,449.000000 549.000000,453.500000 
"/>
<path fill="none" opacity="1.000000" stroke="#000000" stroke-linecap="round" stroke-linejoin="round" stroke-width="12.000000"
	d="
M215.000000,254.000000 
	C222.271790,254.768326 229.490860,256.804138 236.549850,257.477173 
	C244.935944,258.276703 249.372559,265.581879 257.000000,266.500000 
	C264.375946,273.849609 271.409363,281.403381 272.500000,292.500000 
"/>
<path fill="none" opacity="1.000000" stroke="#000000" stroke-linecap="round" stroke-linejoin="round" stroke-width="8.000000"
	d="
M497.500000,878.500000 
	C501.917236,884.892639 505.513702,891.519226 506.693237,899.471313 
	C507.212952,902.974792 509.833344,906.166687 511.500000,909.500000 
"/>
<path fill="none" opacity="1.000000" stroke="#000000" stroke-linecap="round" stroke-linejoin="round" stroke-width="9.000000"
	d="
M363.500000,139.500000 
	C359.172791,152.391693 360.522156,165.224121 364.098572,177.972351 
	C364.396759,179.035324 364.254944,180.013062 364.500000,181.000000 
"/>
<path fill="none" opacity="1.000000" stroke="#000000" stroke-linecap="round" stroke-linejoin="round" stroke-width="11.000000"
	d="
M858.500000,308.500000 
	C856.755920,304.081360 856.884338,298.805786 853.874695,295.101807 
	C850.267761,290.662781 848.136169,285.052155 844.268250,281.234833 
	C839.791443,276.816589 835.608826,271.006897 829.414734,269.311432 
	C824.989380,268.100098 820.882568,266.028534 816.474609,265.123657 
	C812.158752,264.237671 807.784363,263.791870 803.460693,262.648712 
	C798.879822,261.437531 794.382568,263.532593 790.000000,265.000000 
"/>
<path fill="none" opacity="1.000000" stroke="#000000" stroke-linecap="round" stroke-linejoin="round" stroke-width="7.000000"
	d="
M184.000000,403.000000 
	C179.406616,405.946899 176.072754,410.121765 173.032059,414.522156 
	C171.146683,417.250610 168.917679,419.209839 165.500000,419.500000 
"/>
<path fill="none" opacity="1.000000" stroke="#000000" stroke-linecap="round" stroke-linejoin="round" stroke-width="9.000000"
	d="
M806.500061,500.500000 
	C806.000061,506.000000 805.602417,511.512268 804.946167,516.993530 
	C804.706604,518.994629 804.899597,521.736694 801.500000,521.500000 
"/>
<path fill="none" opacity="1.000000" stroke="#000000" stroke-linecap="round" stroke-linejoin="round" stroke-width="8.000000"
	d="
M668.500000,893.000000 
	C661.833313,893.882141 655.166687,893.712646 648.500000,893.000000 
"/>
<path fill="none" opacity="1.000000" stroke="#000000" stroke-linecap="round" stroke-linejoin="round" stroke-width="8.000000"
	d="
M434.000000,394.000000 
	C438.106812,396.027222 440.082764,399.960724 442.500488,403.499664 
	C444.664917,406.667847 446.833344,409.833344 449.000000,413.000000 
"/>
<path fill="none" opacity="1.000000" stroke="#000000" stroke-linecap="round" stroke-linejoin="round" stroke-width="7.000000"
	d="
M703.500000,366.500000 
	C703.894897,373.174561 705.304138,379.773010 705.000000,386.500000 
"/>
<path fill="none" opacity="1.000000" stroke="#000000" stroke-linecap="round" stroke-linejoin="round" stroke-width="11.000000"
	d="
M812.500000,179.000000 
	C806.545288,182.505249 799.336426,184.711517 798.000000,193.000000 
	C789.001038,199.762817 789.453064,210.903793 785.534790,220.014969 
	C783.612610,224.484604 783.122681,229.644669 779.000000,233.000000 
"/>
<path fill="none" opacity="1.000000" stroke="#000000" stroke-linecap="round" stroke-linejoin="round" stroke-width="7.000000"
	d="
M690.500000,538.000000 
	C684.139954,538.847412 677.877563,535.986084 671.500000,537.500000 
"/>
<path fill="none" opacity="1.000000" stroke="#000000" stroke-linecap="round" stroke-linejoin="round" stroke-width="7.000000"
	d="
M354.500000,897.000000 
	C356.770599,903.383545 358.939362,909.848511 366.500000,912.000000 
"/>
<path fill="none" opacity="1.000000" stroke="#000000" stroke-linecap="round" stroke-linejoin="round" stroke-width="8.000000"
	d="
M841.500000,506.000000 
	C835.440918,509.397095 829.524109,512.941650 827.000000,520.000000 
"/>
<path fill="none" opacity="1.000000" stroke="#000000" stroke-linecap="round" stroke-linejoin="round" stroke-width="15.000000"
	d="
M855.500000,513.500000 
	C850.009644,515.539551 844.143738,516.510864 839.850525,521.367859 
	C837.975159,523.489624 834.221436,523.066040 831.535583,521.916809 
	C826.742493,519.865906 822.173035,520.083069 817.498230,521.995728 
	C812.841980,523.900818 808.364868,523.157471 804.000000,521.000000 
"/>
<path fill="none" opacity="1.000000" stroke="#000000" stroke-linecap="round" stroke-linejoin="round" stroke-width="11.000000"
	d="
M730.000000,246.500000 
	C726.333313,244.370956 722.647949,244.256699 719.005249,246.508514 
	C715.293884,248.802872 710.839111,249.455643 707.131653,251.269104 
	C699.914246,254.799423 692.187378,258.374207 688.500000,266.500000 
"/>
<path fill="none" opacity="1.000000" stroke="#000000" stroke-linecap="round" stroke-linejoin="round" stroke-width="7.000000"
	d="
M532.500000,879.500000 
	C533.332642,881.567200 533.757202,883.454834 536.406677,884.698730 
	C539.964478,886.369080 540.848450,890.848572 542.855774,894.089294 
	C544.115967,896.123779 545.223389,897.776611 547.481873,898.702209 
	C550.917053,897.381287 551.905640,894.228333 553.552856,891.532288 
	C555.277344,888.709534 556.256104,885.236023 559.978210,883.937500 
	C561.828308,883.292053 561.527527,880.922729 562.500000,879.500000 
"/>
<path fill="none" opacity="1.000000" stroke="#000000" stroke-linecap="round" stroke-linejoin="round" stroke-width="12.000000"
	d="
M736.500000,183.000000 
	C742.241272,184.996246 748.343018,186.121445 751.637512,192.428177 
	C752.996643,195.030136 757.346375,195.371246 758.438354,198.521378 
	C760.848328,205.474075 766.951233,210.352005 767.901794,218.452850 
	C768.530212,223.807877 772.223328,229.221481 777.000000,233.000000 
"/>
<path fill="none" opacity="1.000000" stroke="#000000" stroke-linecap="round" stroke-linejoin="round" stroke-width="14.000000"
	d="
M871.500000,253.500000 
	C867.154114,248.328812 862.852905,243.203873 854.990479,243.890915 
	C853.725098,244.001511 852.393066,242.279770 850.990234,242.063095 
	C842.210083,240.707001 833.472412,237.646988 824.500000,241.000000 
"/>
<path fill="none" opacity="1.000000" stroke="#000000" stroke-linecap="round" stroke-linejoin="round" stroke-width="6.000000"
	d="
M750.000000,532.250000 
	C743.666687,532.750000 737.333313,533.250000 731.000000,533.750000 
"/>
<path fill="none" opacity="1.000000" stroke="#000000" stroke-linecap="round" stroke-linejoin="round" stroke-width="5.000000"
	d="
M240.000000,813.500000 
	C235.085556,817.374390 230.077499,821.055664 223.500000,821.500000 
"/>
<path fill="none" opacity="1.000000" stroke="#000000" stroke-linecap="round" stroke-linejoin="round" stroke-width="8.000000"
	d="
M671.000000,879.000000 
	C671.928589,884.248108 669.473572,889.300659 670.037659,894.495911 
	C670.580688,899.496460 671.571411,904.458740 670.500000,909.500000 
"/>
<path fill="none" opacity="1.000000" stroke="#000000" stroke-linecap="round" stroke-linejoin="round" stroke-width="4.000000"
	d="
M817.500000,226.500000 
	C816.000000,226.666672 814.248108,226.393494 813.046692,227.081528 
	C809.265259,229.247269 805.468872,229.225693 801.500000,228.000000 
"/>
<path fill="none" opacity="1.000000" stroke="#000000" stroke-linecap="round" stroke-linejoin="round" stroke-width="9.000000"
	d="
M647.000000,879.000000 
	C647.000000,889.000000 647.000000,899.000000 647.000000,909.000000 
"/>
<path fill="none" opacity="1.000000" stroke="#000000" stroke-linecap="round" stroke-linejoin="round" stroke-width="5.000000"
	d="
M582.500000,599.500000 
	C591.804993,598.192505 601.197266,600.141663 610.500000,598.750000 
"/>
<path fill="none" opacity="1.000000" stroke="#000000" stroke-linecap="round" stroke-linejoin="round" stroke-width="4.000000"
	d="
M868.500000,814.000000 
	C872.668762,818.162415 877.896423,820.207153 883.500000,821.500000 
"/>
<path fill="none" opacity="1.000000" stroke="#000000" stroke-linecap="round" stroke-linejoin="round" stroke-width="7.000000"
	d="
M472.500000,404.500000 
	C472.953461,409.500000 473.365387,414.500000 472.500000,419.500000 
"/>
<path fill="none" opacity="1.000000" stroke="#000000" stroke-linecap="round" stroke-linejoin="round" stroke-width="5.000000"
	d="
M603.000000,814.000000 
	C598.588562,817.315674 594.231873,820.737122 588.500000,821.500000 
"/>
<path fill="none" opacity="1.000000" stroke="#000000" stroke-linecap="round" stroke-linejoin="round" stroke-width="5.000000"
	d="
M817.000000,214.000000 
	C821.322876,217.281326 826.426697,217.327423 831.500000,217.500000 
"/>
<path fill="none" opacity="1.000000" stroke="#000000" stroke-linecap="round" stroke-linejoin="round" stroke-width="5.000000"
	d="
M824.000000,269.500000 
	C823.165649,274.786011 827.124512,278.702515 828.000000,283.500000 
"/>
<path fill="none" opacity="1.000000" stroke="#000000" stroke-linecap="round" stroke-linejoin="round" stroke-width="5.000000"
	d="
M254.500000,737.500000 
	C249.454208,739.292297 244.299347,740.880981 240.500000,745.000000 
"/>
<path fill="none" opacity="1.000000" stroke="#000000" stroke-linecap="round" stroke-linejoin="round" stroke-width="6.000000"
	d="
M343.500000,745.000000 
	C339.509583,741.376831 335.195404,738.450928 329.500000,738.500000 
"/>
<path fill="none" opacity="1.000000" stroke="#000000" stroke-linecap="round" stroke-linejoin="round" stroke-width="5.000000"
	d="
M805.000000,742.000000 
	C800.706360,739.970276 796.671265,737.067932 791.500000,738.000000 
"/>
<path fill="none" opacity="1.000000" stroke="#000000" stroke-linecap="round" stroke-linejoin="round" stroke-width="7.000000"
	d="
M625.500000,450.000000 
	C628.143433,449.593689 629.860413,451.609924 631.989746,452.523926 
	C636.795471,454.586700 638.262268,453.659332 637.986755,448.500702 
	C637.906372,446.996094 637.464294,445.489075 637.544617,444.002411 
	C637.686523,441.375641 635.853455,442.136475 634.500000,442.000000 
"/>
<path fill="none" opacity="1.000000" stroke="#000000" stroke-linecap="round" stroke-linejoin="round" stroke-width="4.000000"
	d="
M753.500000,821.500000 
	C749.313477,820.902588 745.667236,818.924500 741.789429,816.854431 
	C737.620117,818.860413 733.628113,821.884399 728.500000,821.500000 
"/>
<path fill="none" opacity="1.000000" stroke="#000000" stroke-linecap="round" stroke-linejoin="round" stroke-width="5.000000"
	d="
M861.500000,738.000000 
	C856.322998,737.473145 852.309448,739.971191 848.500000,743.000000 
"/>
<path fill="none" opacity="1.000000" stroke="#000000" stroke-linecap="round" stroke-linejoin="round" stroke-width="5.000000"
	d="
M615.500000,737.500000 
	C611.000000,739.333374 606.041382,740.249512 602.500000,744.000000 
"/>
<path fill="none" opacity="1.000000" stroke="#000000" stroke-linecap="round" stroke-linejoin="round" stroke-width="7.000000"
	d="
M674.500000,681.500000 
	C683.500000,681.333313 692.500000,681.166687 701.500000,681.000000 
"/>
<path fill="none" opacity="1.000000" stroke="#000000" stroke-linecap="round" stroke-linejoin="round" stroke-width="7.000000"
	d="
M403.000000,878.000000 
	C395.000000,878.000000 387.000000,878.000000 379.000000,878.000000 
"/>
<path fill="none" opacity="1.000000" stroke="#000000" stroke-linecap="round" stroke-linejoin="round" stroke-width="5.000000"
	d="
M895.000000,742.000000 
	C891.017456,739.988525 887.138123,737.690369 882.500000,737.500000 
"/>
<path fill="none" opacity="1.000000" stroke="#000000" stroke-linecap="round" stroke-linejoin="round" stroke-width="6.000000"
	d="
M755.000000,286.500000 
	C758.212524,290.004333 757.441589,294.338562 757.500000,298.500000 
"/>
<path fill="none" opacity="1.000000" stroke="#000000" stroke-linecap="round" stroke-linejoin="round" stroke-width="6.000000"
	d="
M727.500000,279.500000 
	C729.725586,283.414215 728.615112,287.467438 728.000000,291.500000 
"/>
<path fill="none" opacity="1.000000" stroke="#000000" stroke-linecap="round" stroke-linejoin="round" stroke-width="5.000000"
	d="
M748.000000,302.500000 
	C751.518982,305.813904 750.567749,310.431610 751.500000,314.500000 
"/>
<path fill="none" opacity="1.000000" stroke="#000000" stroke-linecap="round" stroke-linejoin="round" stroke-width="6.000000"
	d="
M252.000000,265.500000 
	C250.141388,269.500000 251.218384,273.500000 252.000000,277.500000 
"/>
<path fill="none" opacity="1.000000" stroke="#000000" stroke-linecap="round" stroke-linejoin="round" stroke-width="3.000000"
	d="
M227.000000,228.500000 
	C230.735382,230.919449 234.627029,229.744934 238.500000,229.000000 
"/>
<path fill="none" opacity="1.000000" stroke="#000000" stroke-linecap="round" stroke-linejoin="round" stroke-width="3.000000"
	d="
M749.000000,231.000000 
	C745.599304,233.823532 741.146606,231.807785 737.500000,233.500000 
"/>
<path fill="none" opacity="1.000000" stroke="#000000" stroke-linecap="round" stroke-linejoin="round" stroke-width="4.000000"
	d="
M749.500000,204.000000 
	C753.282837,204.913940 757.010803,206.459015 761.000000,205.000000 
"/>
<path fill="none" opacity="1.000000" stroke="#000000" stroke-linecap="round" stroke-linejoin="round" stroke-width="5.000000"
	d="
M139.500000,817.000000 
	C142.782852,819.438232 146.243790,821.441101 150.500000,821.500000 
"/>
<path fill="none" opacity="1.000000" stroke="#000000" stroke-linecap="round" stroke-linejoin="round" stroke-width="5.000000"
	d="
M526.500000,817.000000 
	C522.945740,818.774719 519.540955,820.914978 515.500000,821.500000 
"/>
<path fill="none" opacity="1.000000" stroke="#000000" stroke-linecap="round" stroke-linejoin="round" stroke-width="3.000000"
	d="
M830.500000,206.000000 
	C833.607788,209.049194 837.436890,209.453659 841.500000,209.000000 
"/>
<path fill="none" opacity="1.000000" stroke="#000000" stroke-linecap="round" stroke-linejoin="round" stroke-width="3.000000"
	d="
M192.500000,222.500000 
	C188.911392,224.384033 185.212662,223.845261 181.500000,223.000000 
"/>
<path fill="none" opacity="1.000000" stroke="#000000" stroke-linecap="round" stroke-linejoin="round" stroke-width="5.000000"
	d="
M840.500000,241.500000 
	C841.259216,244.190155 841.470764,247.132004 843.998108,249.002533 
	C845.216919,249.904587 844.995178,251.239471 845.000000,252.500000 
"/>
<path fill="none" opacity="1.000000" stroke="#000000" stroke-linecap="round" stroke-linejoin="round" stroke-width="4.000000"
	d="
M697.500000,815.000000 
	C694.259705,817.888245 690.854065,820.496643 686.500000,821.500000 
"/>
<path fill="none" opacity="1.000000" stroke="#000000" stroke-linecap="round" stroke-linejoin="round" stroke-width="3.000000"
	d="
M756.500000,216.000000 
	C759.837524,217.519592 763.296387,218.402298 767.000000,218.000000 
"/>
<path fill="none" opacity="1.000000" stroke="#000000" stroke-linecap="round" stroke-linejoin="round" stroke-width="3.000000"
	d="
M741.000000,193.000000 
	C744.500000,193.999176 748.000000,194.428558 751.500000,193.000000 
"/>
<path fill="none" opacity="1.000000" stroke="#000000" stroke-linecap="round" stroke-linejoin="round" stroke-width="4.000000"
	d="
M240.000000,218.000000 
	C243.067032,221.530762 246.991257,219.061218 250.500000,219.500000 
"/>
<path fill="none" opacity="1.000000" stroke="#000000" stroke-linecap="round" stroke-linejoin="round" stroke-width="7.000000"
	d="
M489.000000,900.500000 
	C494.666656,902.784790 500.333344,902.784790 506.000000,900.500000 
"/>
<path fill="none" opacity="1.000000" stroke="#000000" stroke-linecap="round" stroke-linejoin="round" stroke-width="5.000000"
	d="
M645.500000,817.000000 
	C648.360779,819.550110 651.462402,821.565063 655.500000,821.500000 
"/>
<path fill="none" opacity="1.000000" stroke="#000000" stroke-linecap="round" stroke-linejoin="round" stroke-width="3.000000"
	d="
M798.000000,213.000000 
	C794.905396,215.091660 791.568787,215.569611 788.000000,214.500000 
"/>
<path fill="none" opacity="1.000000" stroke="#000000" stroke-linecap="round" stroke-linejoin="round" stroke-width="4.000000"
	d="
M718.750000,218.500000 
	C716.538940,221.800369 713.613831,223.899750 709.500000,224.000000 
"/>
<path fill="none" opacity="1.000000" stroke="#000000" stroke-linecap="round" stroke-linejoin="round" stroke-width="5.000000"
	d="
M820.000000,313.500000 
	C816.416199,316.058197 817.649414,320.061493 817.000000,323.500000 
"/>
<path fill="none" opacity="1.000000" stroke="#000000" stroke-linecap="round" stroke-linejoin="round" stroke-width="5.000000"
	d="
M189.500000,817.000000 
	C186.744583,819.822510 183.148163,820.963013 179.500000,822.000000 
"/>
<path fill="none" opacity="1.000000" stroke="#000000" stroke-linecap="round" stroke-linejoin="round" stroke-width="4.000000"
	d="
M813.000000,301.500000 
	C809.652100,304.204681 810.652710,307.996521 810.500000,311.500000 
"/>
<path fill="none" opacity="1.000000" stroke="#000000" stroke-linecap="round" stroke-linejoin="round" stroke-width="5.000000"
	d="
M235.000000,285.500000 
	C233.505142,288.684875 231.068527,291.587219 232.000000,295.500000 
"/>
<path fill="none" opacity="1.000000" stroke="#000000" stroke-linecap="round" stroke-linejoin="round" stroke-width="3.000000"
	d="
M800.500000,204.000000 
	C797.338928,205.574219 794.377319,207.813232 790.500000,207.000000 
"/>
<path fill="none" opacity="1.000000" stroke="#000000" stroke-linecap="round" stroke-linejoin="round" stroke-width="5.000000"
	d="
M166.000000,284.000000 
	C169.088593,286.656799 167.587234,290.279877 168.000000,293.500000 
"/>
<path fill="none" opacity="1.000000" stroke="#000000" stroke-linecap="round" stroke-linejoin="round" stroke-width="5.000000"
	d="
M182.000000,209.500000 
	C178.876190,210.480911 175.763977,211.682175 172.500000,210.000000 
"/>
<path fill="none" opacity="1.000000" stroke="#000000" stroke-linecap="round" stroke-linejoin="round" stroke-width="4.000000"
	d="
M764.000000,279.000000 
	C765.865662,282.005371 766.085510,285.183990 765.000000,288.500000 
"/>
<path fill="none" opacity="1.000000" stroke="#000000" stroke-linecap="round" stroke-linejoin="round" stroke-width="3.000000"
	d="
M170.000000,252.000000 
	C170.562180,255.659988 167.862579,258.289948 167.000000,261.500000 
"/>
<path fill="none" opacity="1.000000" stroke="#000000" stroke-linecap="round" stroke-linejoin="round" stroke-width="5.000000"
	d="
M154.000000,257.000000 
	C154.582993,260.666565 152.561295,263.510590 151.000000,266.500000 
"/>
<path fill="none" opacity="1.000000" stroke="#000000" stroke-linecap="round" stroke-linejoin="round" stroke-width="3.000000"
	d="
M806.000000,190.500000 
	C804.510193,194.638275 800.934326,193.213745 798.000000,193.500000 
"/>
<path fill="none" opacity="1.000000" stroke="#000000" stroke-linecap="round" stroke-linejoin="round" stroke-width="4.000000"
	d="
M480.500000,817.000000 
	C478.064514,819.629028 474.697449,820.394897 471.500000,821.500000 
"/>
<path fill="none" opacity="1.000000" stroke="#000000" stroke-linecap="round" stroke-linejoin="round" stroke-width="3.000000"
	d="
M262.000000,274.000000 
	C261.089050,276.765381 259.377716,279.436584 261.000000,282.500000 
"/>
<path fill="none" opacity="1.000000" stroke="#000000" stroke-linecap="round" stroke-linejoin="round" stroke-width="4.000000"
	d="
M805.000000,288.000000 
	C803.411438,290.685669 802.665588,293.470459 804.000000,296.500000 
"/>
<path fill="none" opacity="1.000000" stroke="#000000" stroke-linecap="round" stroke-linejoin="round" stroke-width="4.000000"
	d="
M825.000000,243.000000 
	C825.771423,246.709198 828.836487,248.430588 831.500000,250.500000 
"/>
<path fill="none" opacity="1.000000" stroke="#000000" stroke-linecap="round" stroke-linejoin="round" stroke-width="3.000000"
	d="
M263.500000,608.500000 
	C257.833344,608.833313 252.166672,609.166687 246.500000,609.500000 
"/>
<path fill="none" opacity="1.000000" stroke="#000000" stroke-linecap="round" stroke-linejoin="round" stroke-width="3.000000"
	d="
M700.500000,256.000000 
	C700.742126,258.742340 700.309875,261.304871 698.500000,263.500000 
"/>
<path fill="none" opacity="1.000000" stroke="#000000" stroke-linecap="round" stroke-linejoin="round" stroke-width="4.000000"
	d="
M849.000000,291.000000 
	C845.665955,294.214233 848.446716,298.010803 848.000000,301.500000 
"/>
<path fill="none" opacity="1.000000" stroke="#000000" stroke-linecap="round" stroke-linejoin="round" stroke-width="3.000000"
	d="
M247.000000,244.000000 
	C248.306519,246.784851 251.006165,247.758652 253.500000,249.000000 
"/>
<path fill="none" opacity="1.000000" stroke="#000000" stroke-linecap="round" stroke-linejoin="round" stroke-width="3.000000"
	d="
M811.000000,265.500000 
	C810.689758,268.381195 811.437378,270.909760 813.500000,273.000000 
"/>
<path fill="none" opacity="1.000000" stroke="#000000" stroke-linecap="round" stroke-linejoin="round" stroke-width="3.000000"
	d="
M589.000000,600.000000 
	C589.000000,602.500000 589.000000,605.000000 589.000000,607.500000 
"/>
<path fill="none" opacity="1.000000" stroke="#000000" stroke-linecap="round" stroke-linejoin="round" stroke-width="5.000000"
	d="
M741.000000,316.500000 
	C744.272705,318.613647 744.600220,322.199890 745.500000,325.500000 
"/>
<path fill="none" opacity="1.000000" stroke="#000000" stroke-linecap="round" stroke-linejoin="round" stroke-width="3.000000"
	d="
M205.500000,703.000000 
	C203.166672,703.000000 200.833328,703.000000 198.500000,703.000000 
"/>
<path fill="none" opacity="1.000000" stroke="#000000" stroke-linecap="round" stroke-linejoin="round" stroke-width="2.000000"
	d="
M720.500000,384.500000 
	C717.999817,385.500000 720.999573,386.500000 720.500000,387.500000 
"/>
<path fill="none" opacity="1.000000" stroke="#000000" stroke-linecap="round" stroke-linejoin="round" stroke-width="7.000000"
	d="
M623.500000,87.000000 
	C616.132996,88.926613 608.783203,90.922577 602.504822,95.506638 
	C587.766541,106.267647 580.851318,120.391853 581.819763,139.009369 
	C582.853577,158.883347 599.200745,177.984253 620.482727,181.601746 
	C646.446411,186.015045 668.484924,171.722000 675.317383,148.945206 
	C680.620544,131.266525 676.255920,114.864349 663.388489,101.608231 
	C652.802673,90.702599 639.331604,85.935730 624.000000,87.000000 
"/>
<path fill="none" opacity="1.000000" stroke="#000000" stroke-linecap="round" stroke-linejoin="round" stroke-width="8.000000"
	d="
M178.500000,878.000000 
	C176.489014,878.655701 174.463165,879.189331 174.480255,882.000122 
	C174.533890,890.835144 174.500000,899.670593 174.500000,908.449341 
	C181.607147,910.095276 187.760757,910.341980 193.461349,907.424500 
	C199.040451,904.569153 202.137085,895.745850 200.500000,889.000000 
	C199.182907,883.572754 192.171402,878.396301 185.498917,878.019165 
	C183.339142,877.897156 181.166672,878.000000 179.000000,878.000000 
"/>
</svg>